<svg id="圖層_1" data-name="圖層 1" xmlns="http://www.w3.org/2000/svg" xmlns:xlink="http://www.w3.org/1999/xlink" viewBox="0 0 99.21 70.87"><defs><style>.cls-1{fill:#9fa0a0;}.cls-2{fill:#898989;}.cls-3{fill:#c9a063;}.cls-4{fill:#956134;}.cls-5{fill:none;stroke:#7f4f21;stroke-miterlimit:10;stroke-width:0.5px;}.cls-6{fill:#b5b5b6;}.cls-7,.cls-8{opacity:0.8;}.cls-7{fill:url(#未命名漸層_4);}.cls-9{fill:url(#未命名漸層_8);}.cls-10{fill:url(#未命名漸層_8-2);}</style><linearGradient id="未命名漸層_4" x1="-43.75" y1="137.06" x2="-39.33" y2="137.06" gradientTransform="matrix(0.68, 0.65, 0.71, -0.7, -17.81, 148.85)" gradientUnits="userSpaceOnUse"><stop offset="0" stop-color="#40220f"/><stop offset="1" stop-color="#7f4f21"/></linearGradient><linearGradient id="未命名漸層_8" x1="-43.79" y1="131.72" x2="-43.79" y2="131.72" gradientTransform="matrix(0.71, 0.7, 0.7, -0.71, -15.6, 152.24)" gradientUnits="userSpaceOnUse"><stop offset="0" stop-color="#956134"/><stop offset="1" stop-color="#40220f"/></linearGradient><linearGradient id="未命名漸層_8-2" x1="-47.73" y1="137.05" x2="-43.73" y2="137.05" xlink:href="#未命名漸層_8"/></defs><title>吊牌</title><rect class="cls-1" x="28.14" y="4.58" width="43.06" height="5.72"/><rect class="cls-2" x="25.26" y="10.3" width="48.83" height="5.72"/><polygon class="cls-3" points="66.02 67.53 33.73 67.53 28.55 16.02 71.21 16.02 66.02 67.53"/><polygon class="cls-4" points="67.78 49 69.45 32.41 30.31 32.41 31.98 49 67.78 49"/><line class="cls-5" x1="60.19" y1="32.41" x2="60.27" y2="49"/><line class="cls-5" x1="58.7" y1="32.41" x2="58.78" y2="49"/><line class="cls-5" x1="57.21" y1="32.41" x2="57.3" y2="49"/><line class="cls-5" x1="55.73" y1="32.41" x2="55.81" y2="49"/><line class="cls-5" x1="54.24" y1="32.41" x2="54.32" y2="49"/><line class="cls-5" x1="52.75" y1="32.41" x2="52.83" y2="49"/><line class="cls-5" x1="51.26" y1="32.41" x2="51.35" y2="49"/><line class="cls-5" x1="49.78" y1="32.41" x2="49.86" y2="49"/><line class="cls-5" x1="48.29" y1="32.41" x2="48.37" y2="49"/><line class="cls-5" x1="46.8" y1="32.41" x2="46.89" y2="49"/><line class="cls-5" x1="45.32" y1="32.41" x2="45.4" y2="49"/><line class="cls-5" x1="43.83" y1="32.41" x2="43.91" y2="49"/><line class="cls-5" x1="42.34" y1="32.41" x2="42.42" y2="49"/><line class="cls-5" x1="40.85" y1="32.41" x2="40.94" y2="49"/><line class="cls-5" x1="39.37" y1="32.41" x2="39.45" y2="49"/><line class="cls-5" x1="37.71" y1="32.41" x2="38.13" y2="49"/><line class="cls-5" x1="36.22" y1="32.41" x2="36.64" y2="49"/><line class="cls-5" x1="34.57" y1="32.41" x2="35.32" y2="48.99"/><line class="cls-5" x1="32.98" y1="32.42" x2="33.94" y2="48.98"/><line class="cls-5" x1="65.06" y1="32.41" x2="64.32" y2="48.99"/><line class="cls-5" x1="66.66" y1="32.42" x2="65.69" y2="48.98"/><line class="cls-5" x1="68.68" y1="32.48" x2="66.99" y2="48.98"/><line class="cls-5" x1="31.04" y1="32.45" x2="32.73" y2="48.95"/><line class="cls-5" x1="61.93" y1="32.41" x2="61.5" y2="49"/><line class="cls-5" x1="63.42" y1="32.41" x2="62.99" y2="49"/><ellipse class="cls-1" cx="49.67" cy="4.58" rx="21.53" ry="1.19"/><ellipse class="cls-1" cx="49.67" cy="10.3" rx="21.53" ry="1.19"/><ellipse class="cls-6" cx="49.67" cy="4.7" rx="21.09" ry="1.07"/><ellipse class="cls-3" cx="49.88" cy="67.53" rx="16.14" ry="1.19"/><path class="cls-7" d="M46.39,28.32l0,0s0,0,0-.06a1.47,1.47,0,0,1,.25-.52,1.71,1.71,0,0,1,.84-.7,1.36,1.36,0,0,0,.66-.82.5.5,0,0,1,.36-.36.73.73,0,0,0,.53-.48.61.61,0,0,1,.53-.41.87.87,0,0,0,.72-.53,1.23,1.23,0,0,1,.62-.61,1.53,1.53,0,0,0,.82-1.06c.11-.51,1-.35,1.09-.86,0-.17.08-.33.1-.5s.58-.15.82-.36a.84.84,0,0,0,.18-.24l.07.06c1.49,1.44,1,4.28-1.09,6.34S47.88,29.76,46.39,28.32Z"/><g class="cls-8"><polygon class="cls-9" points="45.94 27.82 45.94 27.82 45.94 27.82 45.94 27.82"/><path class="cls-10" d="M53.22,20.44c-.24.21-.8,0-.83.35s-.06.35-.08.52c-.08.54-1,.34-1.09.87a1.45,1.45,0,0,1-.81,1.08,1.17,1.17,0,0,0-.61.63.83.83,0,0,1-.72.53.58.58,0,0,0-.53.41.68.68,0,0,1-.52.49.48.48,0,0,0-.35.36,1.34,1.34,0,0,1-.66.84,1.59,1.59,0,0,0-.83.7,1.63,1.63,0,0,0-.24.54s0,0,0,.06h0c-1.54-1.55-1.12-4.48.94-6.57s5-2.53,6.58-1l-.07-.06A.81.81,0,0,1,53.22,20.44Z"/></g></svg>