<svg id="圖層_1" data-name="圖層 1" xmlns="http://www.w3.org/2000/svg" viewBox="0 0 99.21 70.87"><defs><style>.cls-1{fill:#efcba2;}.cls-2{fill:#6a3906;}.cls-3{fill:#7f4f21;}.cls-4{fill:#dcdddd;}.cls-5{fill:#40220f;}.cls-6{fill:#b5b5b6;}.cls-7{fill:#231815;opacity:0.5;}.cls-8{fill:#efefef;}.cls-9{fill:#9fa0a0;}.cls-10{fill:#b28247;}.cls-11{fill:#956134;}.cls-12{fill:#f7f8f8;opacity:0.3;}</style></defs><title>吊牌</title><rect class="cls-1" x="70.05" y="24.42" width="11.57" height="3.72" rx="1.86" ry="1.86" transform="translate(1.81 -4.73) rotate(3.61)"/><rect class="cls-2" x="58.73" y="23.89" width="16.77" height="1.94" rx="0.75" ry="0.75"/><rect class="cls-2" x="64.23" y="30.79" width="18.01" height="4.76" rx="0.75" ry="0.75" transform="translate(40.06 106.4) rotate(-90)"/><rect class="cls-3" x="64.23" y="32.37" width="18.01" height="1.77" rx="0.5" ry="0.5" transform="translate(39.98 106.48) rotate(-90)"/><rect class="cls-3" x="56.12" y="24.25" width="18.01" height="1" rx="0.5" ry="0.5"/><circle class="cls-4" cx="46.65" cy="45.77" r="22.24"/><path class="cls-5" d="M66.11,45.77a19.46,19.46,0,0,1-38.92,0"/><path class="cls-6" d="M67.86,11.63C67.52,8.1,64.08,6,60,8.31L58.28,18.66C61,20,68.39,17.08,67.86,11.63ZM63.72,13a2.41,2.41,0,0,1-2.47.21,2.37,2.37,0,0,1,1-2.3,2.45,2.45,0,0,1,2.48-.13A2.2,2.2,0,0,1,63.72,13Z"/><path class="cls-7" d="M64.77,10.81h0A2.2,2.2,0,0,1,63.71,13a2.41,2.41,0,0,1-2.47.21,2.42,2.42,0,1,0,3.53-2.43Z"/><ellipse class="cls-8" cx="47.16" cy="22.55" rx="10.65" ry="0.69"/><polygon class="cls-6" points="57.81 22.55 36.51 22.55 33.18 4.21 61.15 4.21 57.81 22.55"/><ellipse class="cls-9" cx="47.35" cy="14.23" rx="0.69" ry="7.5"/><ellipse class="cls-9" cx="43.83" cy="14.63" rx="0.69" ry="7.5" transform="translate(-0.83 2.79) rotate(-3.61)"/><ellipse class="cls-9" cx="40.31" cy="13.04" rx="0.69" ry="7.5" transform="translate(-1.38 5.5) rotate(-7.68)"/><ellipse class="cls-9" cx="36.79" cy="14.23" rx="0.69" ry="7.5" transform="translate(-2.17 8.05) rotate(-12.14)"/><ellipse class="cls-9" cx="57.9" cy="14.4" rx="7.5" ry="0.69" transform="translate(31.65 67.98) rotate(-77.86)"/><ellipse class="cls-9" cx="54.38" cy="13.93" rx="7.5" ry="0.69" transform="translate(33.31 65.97) rotate(-82.32)"/><ellipse class="cls-9" cx="50.87" cy="14.23" rx="7.5" ry="0.69" transform="matrix(0.06, -1, 1, 0.06, 33.46, 64.1)"/><ellipse class="cls-9" cx="47.16" cy="4.21" rx="13.98" ry="0.69"/><ellipse class="cls-2" cx="46.65" cy="45.74" rx="19.46" ry="0.69"/><ellipse class="cls-3" cx="46.65" cy="45.74" rx="15.83" ry="0.4"/><rect class="cls-10" x="35.22" y="22.55" width="24.38" height="4.47" rx="1.46" ry="1.46"/><ellipse class="cls-11" cx="46.65" cy="45.74" rx="6.04" ry="0.2"/><path class="cls-11" d="M46.65,44.69s.53.24.53.53a.52.52,0,0,1-.53.52.52.52,0,0,1-.52-.52C46.13,44.93,46.65,44.69,46.65,44.69Z"/><path class="cls-2" d="M47.24,37a.58.58,0,0,1-.59.58.59.59,0,0,1-.59-.58,5.68,5.68,0,0,1,.59-1.38A5.68,5.68,0,0,1,47.24,37Z"/><path class="cls-3" d="M47.24,39.47a.59.59,0,0,1-.59.58.58.58,0,0,1-.59-.58,5.68,5.68,0,0,1,.59-1.38A5.68,5.68,0,0,1,47.24,39.47Z"/><path class="cls-5" d="M47.24,31.55a.6.6,0,0,1-.59.59.59.59,0,0,1-.59-.59,5.58,5.58,0,0,1,.59-1.37A5.58,5.58,0,0,1,47.24,31.55Z"/><path class="cls-12" d="M34.37,45.4a19.74,19.74,0,0,1,8.19-16H36.47a19.81,19.81,0,0,0-8.17,16c0,11,8.88,18.72,19.83,18.72a20.21,20.21,0,0,0,3-.26C41.66,62.4,34.37,55.32,34.37,45.4Z"/><rect class="cls-1" x="70.38" y="37.19" width="9.61" height="3.72" rx="1.86" ry="1.86"/><rect class="cls-1" x="68.25" y="33.47" width="11.75" height="3.72" rx="1.86" ry="1.86"/><rect class="cls-1" x="67.89" y="29.75" width="12.1" height="3.72" rx="1.86" ry="1.86"/><rect class="cls-1" x="68.43" y="26.02" width="11.57" height="3.72" rx="1.86" ry="1.86"/><circle class="cls-1" cx="78.85" cy="32.76" r="8.15"/><rect class="cls-1" x="83.9" y="27.59" width="9.19" height="10.03"/></svg>