<svg id="图层_1" data-name="图层 1" xmlns="http://www.w3.org/2000/svg" viewBox="0 0 500 500"><defs><style>.cls-1{fill:#fff;}.cls-1,.cls-4{stroke:#603813;stroke-miterlimit:10;stroke-width:3px;}.cls-2{fill:#c1272d;}.cls-3{fill:#603813;}.cls-4{fill:none;}</style></defs><circle class="cls-1" cx="249.92" cy="250.12" r="169.36"/><path class="cls-2" d="M293.67,324.09c-.94,2.57,1.77,3.67,6,12.78a7.73,7.73,0,0,0,2.38,3.44c2.37,1.74,5.68.64,8.38-.53,1.15-.49,2.41-1.1,2.88-2.26a4.9,4.9,0,0,0,0-2.58q-1.23-7.06-3-14a5.33,5.33,0,0,0-.8-1.95c-1.05-1.34-3.26-1-4.61-.9a14.38,14.38,0,0,0-4.78,1.4C296.31,321.29,294.34,322.22,293.67,324.09Z"/><path class="cls-3" d="M292.37,324.84c2.1,4.48,4.11,9,6.3,13.43a7.49,7.49,0,0,0,4.13,4.1,9.22,9.22,0,0,0,5.73-.27,13.13,13.13,0,0,0,5.13-2.53c1.7-1.62,1.34-3.79,1-5.89-.41-2.35-.88-4.7-1.39-7a64,64,0,0,0-1.7-7,4.82,4.82,0,0,0-4.68-3.36c-2.4-.06-4.38,1.46-6.71,1.66-1.91.16-1.92,3.16,0,3s3.42-1,5.18-1.45c1-.29,2.57-.48,3.18.64a11.32,11.32,0,0,1,.75,2.63c.24,1,.48,2,.71,3q.67,3,1.26,5.95c.17.93.35,1.85.51,2.78a4.49,4.49,0,0,1,.13,2.56c-.54,1.13-2.72,1.69-3.8,2.06-1.38.47-3.05.94-4.48.38s-2.11-2.25-2.73-3.56q-3-6.3-5.9-12.59c-.82-1.75-3.4-.23-2.59,1.51Z"/><path class="cls-2" d="M349.09,308.71c-.93,2.58,1.78,3.67,6,12.79a7.71,7.71,0,0,0,2.38,3.44c2.36,1.74,5.68.63,8.37-.53,1.15-.5,2.42-1.1,2.88-2.27a4.71,4.71,0,0,0,0-2.58q-1.22-7.06-3-14a5.07,5.07,0,0,0-.8-2c-1-1.33-3.25-1-4.61-.89a14.16,14.16,0,0,0-4.77,1.39C351.73,305.91,349.77,306.84,349.09,308.71Z"/><path class="cls-3" d="M305.13,295q18.66-4.65,37-10.32c1.84-.56,1.06-3.46-.79-2.89q-18.37,5.67-37,10.31c-1.88.47-1.08,3.36.79,2.9Z"/><path class="cls-3" d="M315.6,296.38a103.85,103.85,0,0,1-4.93,16.25,1.52,1.52,0,0,0,1.05,1.84,1.54,1.54,0,0,0,1.85-1.05,103.37,103.37,0,0,0,4.92-16.24c.41-1.88-2.48-2.69-2.89-.8Z"/><path class="cls-3" d="M328.74,293.61a70.24,70.24,0,0,0,15.46,10.74c1.72.88,3.24-1.71,1.52-2.59a66.43,66.43,0,0,1-14.86-10.27c-1.42-1.3-3.55.81-2.12,2.12Z"/><path class="cls-3" d="M335.49,311.64a83.5,83.5,0,0,1-3.86,22.55c-1.82,5.71-4.38,11.94-10,14.89-1.71.9-.2,3.49,1.51,2.59,6-3.17,9-9.63,11.05-15.79a86.5,86.5,0,0,0,4.26-24.24c.06-1.93-2.94-1.93-3,0Z"/><path class="cls-3" d="M319.63,316.86a86.11,86.11,0,0,0,14.68,17.29c5.25,4.73,11.6,9.54,19.05,9.14,1.92-.1,1.93-3.1,0-3-6.93.37-12.77-4.43-17.58-8.85a82.91,82.91,0,0,1-13.56-16.1c-1.05-1.61-3.65-.11-2.59,1.52Z"/><path class="cls-3" d="M316.63,283.09c-12.45-13.09-24-30.71-43.86-31.92A24.43,24.43,0,0,0,260,253.66c-2.17,1.14-2.45,3.19-1,5.07s2.87,3.5,4.4,5.16A97.53,97.53,0,0,0,283.88,281a85.13,85.13,0,0,0,27.67,11.21c1.88.39,2.69-2.5.8-2.89-16.22-3.35-31-11.85-42.79-23.36a77.71,77.71,0,0,1-8.19-9c-.06-.09-.35-.7-.39-.4s.22-.1.37-.19a12.6,12.6,0,0,1,1.23-.58,21.85,21.85,0,0,1,2.93-1,22.59,22.59,0,0,1,5.9-.66c8.3.1,16.16,4,22.43,9.23,7.73,6.44,13.76,14.6,20.67,21.86,1.33,1.4,3.45-.72,2.12-2.12Z"/><path class="cls-3" d="M328.35,282.13c3.64-16.36,4.19-36.36,18.79-47.42a23.48,23.48,0,0,1,9.95-4.52c.46-.08.93-.15,1.39-.19.24,0,1.07,0,.95-.14s-.1.55-.12.78c-.07.6-.18,1.2-.27,1.8-.32,2.06-.71,4.12-1.16,6.16a94.71,94.71,0,0,1-8.53,23.53,82.37,82.37,0,0,1-17,22.33c-1.42,1.31.7,3.43,2.12,2.12,13.39-12.35,22.23-29.11,26.22-46.79q.74-3.25,1.25-6.55c.29-1.82,1.08-4.38-.68-5.69-1.57-1.18-4.26-.44-6,0a25.08,25.08,0,0,0-5.68,2.12c-7.27,3.72-12.76,10.69-16,18.07-4.66,10.66-5.61,22.38-8.11,33.63-.42,1.88,2.47,2.68,2.89.79Z"/><path class="cls-4" d="M334.86,287.4c15.49,7.27,38.73,19.67,41.51,29.7,4.22,15.21-11.27,32.79-34.6,39.26s-45.67-.61-49.89-15.82c-2.78-10,10.71-32.57,20.24-46.79"/><path class="cls-3" d="M320.13,282.84l-2.66-3.33-1.26-1.58-.7-.88-.28-.35c-.13-.17-.34-.62-.15-.1v.8c0-.33-.4.74-.68.56a4.1,4.1,0,0,0,.53.15c.21.08.67.29,1,.42a9.81,9.81,0,0,0,2.41,1,2,2,0,0,0,2.05-1,5.79,5.79,0,0,0,.34-.85l0-.1c0-.12,0-.13,0,0s-.06.12,0,0a1.09,1.09,0,0,1-.89.5l-1.45-1.1q1.15,3.07,2.45,6.1a27,27,0,0,0,2.82,5.61,1.54,1.54,0,0,0,2.05.54,1.5,1.5,0,0,0,.54-2.05,27.07,27.07,0,0,1-2.76-5.48l-.18-.41c0-.1,0-.09,0,0l-.09-.2c-.12-.3-.25-.59-.37-.89-.21-.51-.41-1-.62-1.54q-.5-1.25-1-2.49a1.54,1.54,0,0,0-1.44-1.1,2.08,2.08,0,0,0-1.93,1.51c-.08.2-.13.41-.21.6.09-.2.09-.23,0-.09l.35-.35c.44-.33,1,0,.52-.22-.89-.4-1.78-.82-2.68-1.18a3.17,3.17,0,0,0-2.77.05,2,2,0,0,0-.95,1.27,1.94,1.94,0,0,0,.51,1.7l1.75,2.19L318,285a1.5,1.5,0,0,0,2.12,0,1.53,1.53,0,0,0,0-2.12Z"/><path class="cls-2" d="M140.07,266.54c-3.47,2.87-.55,6.67-2.18,23-.28,2.82-.44,4.65.5,6.84,1.89,4.43,7.49,5.62,12.27,6.23,2,.25,4.32.45,6-.8a7.84,7.84,0,0,0,2.2-3.62q4.17-11,7.43-22.29a8.57,8.57,0,0,0,.5-3.42c-.36-2.76-3.74-4.17-5.76-5.1a23.07,23.07,0,0,0-7.9-2C146.13,264.79,142.58,264.47,140.07,266.54Z"/><path class="cls-3" d="M138.57,266.54c-.75,8-1.6,15.94-2.26,23.92-.26,3.22,0,6.42,2.22,9a13.66,13.66,0,0,0,7,3.82c2.81.74,6.18,1.44,9.08,1,3.57-.53,4.88-3.43,6-6.49,2.68-7.16,5.21-14.43,7.21-21.81a7.64,7.64,0,0,0-.14-5.43,7.88,7.88,0,0,0-3-3.17c-3.31-2-7.37-1.52-10.79-3.21-1.72-.85-3.24,1.74-1.51,2.59,2.79,1.39,5.83,1.41,8.75,2.3,2.35.72,4.6,2.34,4.11,5.06a79.42,79.42,0,0,1-2.9,9.74q-1.54,4.79-3.25,9.53-.81,2.27-1.66,4.5c-.51,1.31-1.07,2.74-2.49,3.26a8.44,8.44,0,0,1-3.84.1,34.31,34.31,0,0,1-3.74-.62,12.58,12.58,0,0,1-6.22-2.83c-2.1-2.07-2-5-1.73-7.72.7-7.83,1.48-15.66,2.22-23.49.18-1.92-2.82-1.9-3,0Z"/><path class="cls-2" d="M231.14,291c-3.46,2.87-.54,6.66-2.17,23.05-.28,2.82-.45,4.65.49,6.84,1.9,4.42,7.5,5.62,12.27,6.22,2,.26,4.32.46,6-.8a7.78,7.78,0,0,0,2.21-3.61q4.16-11,7.43-22.3a8.49,8.49,0,0,0,.49-3.41c-.36-2.76-3.74-4.17-5.76-5.11a23.21,23.21,0,0,0-7.9-2C237.2,289.21,233.65,288.89,231.14,291Z"/><path class="cls-3" d="M180.72,234.08q30.21,9,60.88,16.25c1.87.45,2.67-2.44.79-2.89q-30.64-7.27-60.87-16.26c-1.86-.55-2.65,2.35-.8,2.9Z"/><path class="cls-3" d="M194.75,246.38a169.92,169.92,0,0,1-20.48,18.84,1.5,1.5,0,0,0,2.12,2.12,168.37,168.37,0,0,0,20.48-18.84c1.31-1.41-.81-3.54-2.12-2.12Z"/><path class="cls-3" d="M215.9,252.48a113.8,113.8,0,0,0,12.82,27.82c1,1.62,3.63.12,2.59-1.52a110.44,110.44,0,0,1-12.52-27.1c-.56-1.84-3.46-1.05-2.89.8Z"/><path class="cls-3" d="M210.32,284.27a137.88,137.88,0,0,1-16.94,21.64c-6.09,6.34-12.8,12.7-20.65,16.81a27,27,0,0,1-13.93,3.38c-1.93-.09-1.92,2.91,0,3,9.28.47,17.62-4.36,24.64-10a130.87,130.87,0,0,0,20.12-20.29,143.07,143.07,0,0,0,9.35-13.07c1-1.64-1.56-3.15-2.59-1.52Z"/><path class="cls-3" d="M183.71,278a141,141,0,0,0,4.62,30.62c2.29,8.58,5.14,17.61,10.39,24.9a29,29,0,0,0,10.16,9.06c1.72.88,3.24-1.71,1.51-2.59-7.16-3.66-11.53-10.77-14.5-18a126,126,0,0,1-7.5-27.29,135.72,135.72,0,0,1-1.68-16.7c-.08-1.92-3.08-1.93-3,0Z"/><path class="cls-3" d="M205.69,228c-3.75-16.13-5.46-32.8-11.13-48.43-4.65-12.86-12.43-24.93-23.94-32.65a40.77,40.77,0,0,0-18-6.76c-1.65-.18-3.58-.43-5,.72s-1.38,2.84-1.17,4.44c.49,3.59,1.14,7.16,1.88,10.71A159.85,159.85,0,0,0,163,197.08,139,139,0,0,0,188.63,232q1.94,1.91,4,3.72c1.43,1.29,3.56-.82,2.12-2.12a133.94,133.94,0,0,1-25.84-32.06,153.77,153.77,0,0,1-15.72-38.29q-1.33-5.07-2.35-10.22c-.32-1.65-.62-3.3-.89-5-.14-.86-.27-1.72-.4-2.58-.08-.56-.41-1.68-.06-2.19.58-.88,3.44-.15,4.35,0a35.77,35.77,0,0,1,4.56,1,38.83,38.83,0,0,1,8.31,3.62c11.05,6.42,19.06,17.48,23.79,29.18,5.91,14.65,7.89,30.44,11.07,45.81q.6,2.93,1.27,5.82c.44,1.88,3.33,1.09,2.9-.79Z"/><path class="cls-3" d="M223.32,235.46c10.08-10.78,19-22.69,29.78-32.76,10.13-9.43,22.48-17.07,36.46-18.79a39.06,39.06,0,0,1,19.59,2.33,18.88,18.88,0,0,1,2.28,1.06c.89.51,1,.9.41,1.76a44.89,44.89,0,0,1-3.24,4.05q-3.25,3.9-6.74,7.6a155.93,155.93,0,0,1-31.71,25.88,135.7,135.7,0,0,1-37.23,15.93q-2.5.64-5,1.18c-1.89.41-1.09,3.3.79,2.9A137.38,137.38,0,0,0,268.6,231a157.94,157.94,0,0,0,33.73-26.46q3.75-3.87,7.24-8,1.74-2.06,3.42-4.15c1.11-1.39,2.51-2.9,2.23-4.82s-1.79-2.73-3.29-3.43a38.92,38.92,0,0,0-4.91-1.9,40.19,40.19,0,0,0-10.27-1.7c-14.46-.56-28.5,5.83-39.62,14.67-12.21,9.7-21.7,22.21-32,33.78-1.29,1.44-2.59,2.87-3.92,4.29s.8,3.53,2.13,2.12Z"/><path class="cls-4" d="M228.77,249c15.83,23.17,38.33,60,33.91,76.5-6.7,25-43.21,36.92-81.55,26.64s-64-38.87-57.28-63.86c4.41-16.47,42.24-37.09,67.53-49.24"/><path class="cls-3" d="M210.84,230.54l-1.12-7.91-.49-3.46a11.1,11.1,0,0,0-.28-2c-.85.34-1,.62-.47.84a5.13,5.13,0,0,1,.51.53c.75.89,1.39,1.92,2.07,2.87a6.54,6.54,0,0,0,1.87,2.17,2.42,2.42,0,0,0,2.33-.12,7.73,7.73,0,0,0,.9-.7l.27-.24c.42-.21.23-.25-.57-.11l-.69-1.7c-.61,3.45-1.14,6.9-1.59,10.37s-1,6.93-.69,10.33c.19,1.9,3.2,1.92,3,0a44.75,44.75,0,0,1,.65-10c.42-3.31.94-6.61,1.52-9.9a1.53,1.53,0,0,0-.69-1.69,2.38,2.38,0,0,0-2.55.18c-.08.06-1,.69-1,.84,0-.45.52.35.11-.57a4.25,4.25,0,0,0-.53-.75c-1.3-1.81-2.9-5-5.59-4.66a2.07,2.07,0,0,0-1.86,2.22c.06,1.52.44,3.09.65,4.6l1.36,9.63c.27,1.91,3.16,1.1,2.9-.79Z"/></svg>