<svg id="图层_1" data-name="图层 1" xmlns="http://www.w3.org/2000/svg" viewBox="0 0 300 300"><defs><style>.cls-1{fill:#633326;}.cls-2{fill:#e8403d;}.cls-3{fill:#8d5c3a;}.cls-4{fill:#e7413d;}.cls-5{fill:#e6413e;}.cls-6{fill:#faf1f0;}.cls-7{fill:#fff;}.cls-8{fill:#fcf8f7;}.cls-9{fill:#ed5451;}.cls-10{fill:#fffdfd;}</style></defs><path class="cls-1" d="M296.85,134.34c-.3,4.27.85,9.64-.61,14.9-4,3.1-7.88,6.3-11.95,9.29-22.05,16.23-44.2,32.33-66.17,48.67a12.87,12.87,0,0,1-11.48,2.52q-90-18.61-180-36.84c-6.12-1.25-12.25-2.45-18.35-3.77-5.3-1.14-5.95-1.87-6-7.05-.07-8.93.09-17.86-.07-26.79a7.07,7.07,0,0,1,4.16-7.11c9.16-4.94,18.2-10.09,27.31-15.14,15.86-8.81,31.78-17.52,47.56-26.47a15.55,15.55,0,0,1,10.94-2c25.55,4.09,51.16,7.8,76.74,11.72,25.28,3.88,50.54,7.88,75.83,11.76,14.11,2.17,28.28,4,42.35,6.37,10,1.7,9.77.33,9.74,10.84Z"/><path class="cls-2" d="M208,204.42c-5.58-1-11.41-1.9-17.18-3.1-27-5.63-54-11.43-81.05-17-22.09-4.55-44.25-8.79-66.35-13.27-10.77-2.19-21.47-4.66-32.23-6.9-2.53-.52-3.47-2-3.47-4.34,0-6.25-.09-12.5,0-18.75.06-3.13,1.31-4,4.62-3.9a24.68,24.68,0,0,1,3.55.35q28.41,5.47,56.81,11,30.58,6,61.15,12c20.1,3.92,40.2,7.81,60.29,11.81,4.07.81,8.3.73,12.23,2.38,1.44.6,2.83,1.21,2.86,2.94.15,8.59.86,17.2-.45,25.76C208.74,203.63,208.43,203.83,208,204.42Z"/><path class="cls-2" d="M191.72,106.78c7.5-.5,14.7,1.67,22,2.61,14.38,1.84,28.68,4.31,43,6.5,8.48,1.3,17,2.57,25.44,3.91a1.58,1.58,0,0,1,.88,2.61,10.49,10.49,0,0,1-2.08,1.65q-21.57,14.17-43.18,28.31a14.74,14.74,0,0,1-3.31,1.17c-7.51-.34-12.87-5.38-18.94-8.78-8.22-4.6-16.74-8.69-24.37-14.32.39-7.12-2.06-13.35-6.08-19.1C185.56,107.28,187.4,105.23,191.72,106.78Z"/><path class="cls-3" d="M191,130.11c3.2-.33,5.68,1.47,8.23,2.9q15.89,8.9,31.69,17.93a42.58,42.58,0,0,1,3.6,2.6,21,21,0,0,1-3.12,3.07c-5.94,3.85-12,7.53-17.94,11.35a6.18,6.18,0,0,1-5,.86c-12.64-2.73-25.5-4.37-38-7.81-4.2-1.15-8.78-.92-13-2.49-5.64-1.34-7.3-4.4-4.15-9.56,1.38-2.26,2.76-4.52,4-6.85.8-1.44,1.71-2.8,2.63-4.16,1.42-2,2.45-4.37,4.22-6.18a6.69,6.69,0,0,1,7.81-.91c-3.92-4.79-5.14-11.11-6.61-17.34a5,5,0,0,1,1.21-3.5,9.22,9.22,0,0,1,2.06-1.34c1.09-.54,2.21-1,3.32-1.52a18.17,18.17,0,0,1,2.27-1c3.82-1.3,6.48.29,8.52,3.42a33,33,0,0,1,1.87,3.94c5,11.08,4.8,12.08-4,20C184.1,132.56,186.74,128.93,191,130.11Z"/><path class="cls-4" d="M181.26,110.75c-2.71-3.89-2.71-3.89-7.54-2.35-19-3-38-6.84-57.35-6-17.19.78-34.39,2.32-50.63,8.79-5.49,2.19-12.39,4.14-12.58,11.09-.19,7.39,6.72,10,12.52,12.22,12.3,4.63,25.16,6.25,38.24,7.65,16.44,1.76,32.51.38,48.69-1.61,2.4-.3,4.78-.15,6.62,1.8-1,3.51-3.55,6.12-5.12,9.29-.93,1.89-1.8,3.35,1.31,5.13a13.34,13.34,0,0,1,2,1.71c-4.58.73-8.85-1.09-13.18-1.89C124.37,153,104.6,148.82,84.78,145s-39.68-7.56-59.51-11.38c-3.13-.6-6.2-1.49-9.16-2.21-.08-1.91,1.14-2.4,2.14-2.95q26.16-14.52,52.35-29c3.39-1.87,6.89-3.58,10.1-5.72A18,18,0,0,1,94.31,91c17.29,2.85,34.57,5.73,51.89,8.38,14.08,2.15,28.23,4,42.33,6a13,13,0,0,1,3.19,1.41c-3.26.2-5.24,1.77-5.49,5.17C184.06,113.69,182.9,111.22,181.26,110.75Z"/><path class="cls-5" d="M214.94,188.22c0-3,.12-5.95,0-8.91a8,8,0,0,1,3.91-7.49c3.21-2.13,6.49-4.17,9.71-6.3l55-36.43c1.73-1.14,3.51-2.23,5.3-3.26a1.73,1.73,0,0,1,2.52,1.51q.15,8,.13,16c0,3-2.1,4.84-4.25,6.47-5,3.76-10,7.43-15,11.11q-25.88,19-51.77,37.89c-.72.52-1.42,1.08-2.17,1.56-1.51,1-3.1.27-3.14-1.49-.09-3.56,0-7.13,0-10.7Z"/><path class="cls-6" d="M181.26,110.75l5,1.2c1.31,1.15,2.68,2.24,3.9,3.47,4.57,4.59,4.84,6.83,1.7,13.16-.26.52-.56,1-.85,1.53-3.29,1.92-6.52,3.95-9.88,5.72-2.09,1.09-2.18.92-6.74-1.42,2.84-1.81,5.52-3.43,8.1-5.19,4.22-2.88,4.95-4.94,2.57-9.58A69.07,69.07,0,0,1,181.26,110.75Z"/><path class="cls-7" d="M166.37,112.21c1.43,3.88,2.92,7.74,4.27,11.64.77,2.21,2.27,4.79,1.71,6.7-.88,3-4.19.13-6.15,1.22-.72.39-1.17,1.26-1.74,1.92-2.58,2-5.09,3.81-8.55,4.43-28.15,5.09-56.06,4.55-83.52-3.84-6-1.85-14.15-3.66-13.84-11.68s8.27-10.37,14.85-12c22.31-5.41,44.83-8.48,67.88-4.87,5.82.92,11.81.75,17.64,2.14C161.93,108.62,164.64,109.46,166.37,112.21Z"/><path class="cls-8" d="M159.23,142.39c-6.5.74-13,1.44-19.49,2.21-13.68,1.64-27.36,1-41-.3-10.95-1-21.82-2.84-32.18-6.77a82.22,82.22,0,0,1-8.94-4,22.8,22.8,0,0,1-5-3.68c-4.9-4.69-4.91-9.12-.26-13.9a23.18,23.18,0,0,1,8.14-5.38c5-2,9.93-4.12,15.1-5.3a196.63,196.63,0,0,1,61.14-4.53c10.09.88,20.13,1.9,30,4.33,2.55.63,5.27,1,7,3.32l-2,.64a6.62,6.62,0,0,1-2,.92h-.61l-.58.2c-18.24-2.64-36.47-5.1-55-4.26-13.69.62-27.34,1.56-40.43,5.9-6.08,2-14.48,3.6-14.23,11.28.22,6.79,8.14,8.73,14,10.58,20.16,6.29,40.9,7,61.79,5.83,7.12-.41,14.2-1.13,21.28-2.09,1.64-.23,4.17-1.76,5.31,1.22Z"/><path class="cls-9" d="M161.37,138.61c-4.15-.73-8.16.58-12.21,1-23.21,2.6-46.32,2.61-69.23-2.45a86.32,86.32,0,0,1-12.74-4,25.54,25.54,0,0,1-6.85-4.1c-4.7-3.86-4.57-9.08.18-12.84,3.54-2.81,7.71-4.44,12-5.83a119.47,119.47,0,0,1,27.09-5.2,249.36,249.36,0,0,1,43.72,0c8.55.76,17.16,1.72,25.29,4.9l-2.22,2.06a195.79,195.79,0,0,0-64.53-4.07,167.07,167.07,0,0,0-25.4,4.24,63,63,0,0,0-10,3.72,19.79,19.79,0,0,0-5,3.56c-2.29,2.12-2,4.58.49,6.87a25.55,25.55,0,0,0,9.31,5.05,116.5,116.5,0,0,0,26,5.56c4.14.44,8.28.75,12.43,1a182.53,182.53,0,0,0,54.78-4.47C163.68,135.48,163.19,137.46,161.37,138.61Z"/><path class="cls-9" d="M169.78,110a1.76,1.76,0,0,1,2-.92A1.77,1.77,0,0,1,169.78,110Z"/><path class="cls-10" d="M220.62,191.69a8.85,8.85,0,0,1-.43-2.1c.08-4.72-.55-9.46.41-14.15,3.61-2.57,7.16-5.22,10.83-7.7,5.65-3.8,11.36-7.5,17.06-11.23,1.45-.94,2.77-2.18,5.32-2.21,1,2.28.46,4.89.54,7.39s-.06,4.74-.06,7.11c0,1.71-1.09,2.72-2.3,3.55q-14.3,9.77-28.65,19.45A2,2,0,0,1,220.62,191.69Z"/></svg>