<svg id="图层_1" data-name="图层 1" xmlns="http://www.w3.org/2000/svg" viewBox="0 0 300 300"><defs><style>.cls-1{fill:#613427;}.cls-2{fill:#fffffe;}.cls-3{fill:#f4a81e;}.cls-4{fill:#fff;}.cls-5{fill:#e7181e;}.cls-6{fill:#fefefe;}.cls-7{fill:#f4a81d;}.cls-8{fill:#f3a81d;}.cls-9{fill:#efa527;}.cls-10{fill:#663227;}.cls-11{fill:#744030;}.cls-12{fill:#d2cece;}.cls-13{fill:#d2cdcd;}.cls-14{fill:#d1cece;}.cls-15{fill:#d3cfcf;}.cls-16{fill:#e82227;}.cls-17{fill:#e82329;}.cls-18{fill:#e81f25;}.cls-19{fill:#653226;}</style></defs><path class="cls-1" d="M59,140.65V36.89c0-1.91.11-3.82,0-5.72a5.06,5.06,0,0,1,3-5.26C73.14,20.2,84.29,14.51,95.39,8.75a8,8,0,0,1,5.51-.49q34,6.57,68.13,13c21.37,4.08,42.73,8.24,64.11,12.27,10,1.88,8.72,1.71,8.73,10.15q0,103,0,205.9a18.2,18.2,0,0,0,0,2.45c.48,3.31-1,5.62-3.37,7.79-8.1,7.29-16,14.83-24.09,22.09-3.62,3.23-6.45,8.35-11.27,9-4.3.56-9-1.47-13.47-2.58Q128.33,273.15,67,257.89c-1.32-.33-2.68-.53-4-.93-3.35-1-3.84-1.68-4-5.19-.08-1.9,0-3.81,0-5.71Z"/><path class="cls-2" d="M118.43,42.35l76.16,14.24a28.75,28.75,0,0,1,3.2.64c1.68.51,2.82,1.51,2.77,3.48,0,1.63,0,3.26,0,4.9q0,78.39,0,156.79c0,2.44-.23,4.88-.36,7.32-6.06,5.41-13.73,4.35-20.88,4.8-4,.25-4.58-3.94-5.87-6.88-5.52-12.53-14.23-17.71-27.68-16.77-6.12.43-10.71,3.63-14.73,7.83-3.86,4-7.77,4.2-12.31,1.09-4.28-2.93-8.52-5.87-11.92-9.82-4.73-5.5-4.45-7.88,2.21-11,10.36-4.91,14.63-13.06,14.5-24.17a23.79,23.79,0,0,0-29.4-22.94C79.7,155.36,79.41,155,79.23,139.87a83.92,83.92,0,0,1,3.08-23.35c.83-3,2.14-5.63,5.63-6.28a12.9,12.9,0,0,1,10,2.38c2.81,3.9,5.22,8.07,10.16,10,9.54,3.8,19.51-.37,23.27-10.08,3.51-9-2.28-20.86-11.5-23.63-3.58-1.08-7.68-.24-10.83-3-4-9.45-1.87-19.23-1.64-28.91C109.46,51,112.39,45.5,118.43,42.35Z"/><path class="cls-3" d="M87.1,111c-.67.83-1.69,1.57-1.95,2.52a105.29,105.29,0,0,0-3.28,37.19c.18,2,1.52,2.75,3.43,1.88a36.71,36.71,0,0,1,8.37-3c13.41-2.66,27.22,4.5,31.12,17.44s-.19,26.56-13.5,33.24c-2.12,1.07-5.6,1-6.14,3.3-.66,2.9,2.76,4.29,4.54,6.18a65.27,65.27,0,0,0,12.83,10c2.63,1.67,3,1.55,5.39-1,.37-.4.69-.84,1-1.26,12-14.35,37.68-12.09,45.65,7.73.41,1,.88,2,1.23,3,1.69,4.88,1.68,4.95,6.67,4.24,5.92-.84,11.82-1.8,17.72-2.7.16,3.8.43,7.6.45,11.39.06,12.53,0,25.05,0,37.58,0,1.36,0,2.72-.12,4.08-.16,2-1.26,2.74-3.39,2.25-4.5-1-9-2.2-13.47-3.31q-55-13.62-110.06-27.27C63.17,251.82,64,253.33,64,242.21q0-63.3,0-126.61c0-3,.24-6,.37-9C72.81,103.5,80.05,106.75,87.1,111Z"/><path class="cls-4" d="M206.05,228.09c-.12-2.72-.36-5.43-.36-8.15q0-77.26,0-154.55c0-9.72-1.31-7.39,7.65-12.06,6-3.14,12.14-6.16,18.24-9.17,1.4-.69,2.75-1.79,4.54-1.25,1.06,1.11.66,2.52.67,3.79q0,83.82,0,167.64c0,1.08-.15,2.17-.23,3.25C227.65,224.73,217.74,229,206.05,228.09Z"/><path class="cls-5" d="M87.1,111c-4.69-1-9.37-2.14-14.07-3.11-2.87-.58-5.68-1.64-8.68-1.24a47,47,0,0,1-.48-4.86c0-20.42,0-40.85,0-61.27,0-6.92.65-7.83,7.45-6.66,12.29,2.13,24.54,4.56,36.8,6.9.48.09.89.59,1.34.89,3.94,4.34,1.19,8.85.35,13.31q-.14,13.83-.28,27.66a6.37,6.37,0,0,0,1.36,4.55c2.15,7.12.78,14.4.93,21.6.07,3.38.4,7.55-3.72,9-3.87,1.33-7.38-.19-10-3.43Z"/><path class="cls-6" d="M133,20.6c2.45-.59,4.87-.1,7.27.35Q182.62,29,225,37.14a5.61,5.61,0,0,1,3.61,1.62c-.1,1.29-1.18,1.66-2.08,2.11-6.53,3.32-13.12,6.52-19.6,9.94a13.23,13.23,0,0,1-9.33,1.12c-22.37-4.36-44.8-8.46-67.21-12.64l-8-1.48C121.64,29.44,126.93,24.79,133,20.6Z"/><path class="cls-7" d="M206.05,228.09c10.52-2.49,20.55-6.41,30.52-10.5.09,10.87.14,21.73.28,32.59a8,8,0,0,1-2.58,6.55c-9,8.24-17.88,16.54-26.63,24.64a6.76,6.76,0,0,1-1.29-.52,1,1,0,0,1-.37-.63C205.63,262.84,205.46,245.47,206.05,228.09Z"/><path class="cls-8" d="M133,20.6l-7.53,11c-1.32,1.93-3,3.66-3,6.22l-50.5-9.18c.15-2.08,1.54-2.47,2.66-3.06,6.27-3.31,12.57-6.54,18.81-9.88,2.73-1.46,5.48-2.33,8.61-1.72,9.87,1.94,19.75,3.83,29.61,5.78A4.87,4.87,0,0,1,133,20.6Z"/><path class="cls-9" d="M109.76,55q-.18-6.65-.35-13.31a29.18,29.18,0,0,1,9,.7Q114.09,48.65,109.76,55Z"/><path class="cls-10" d="M149.37,80c-1.06-10.45,10.4-19.41,20-18.69a19.61,19.61,0,0,1-2,39.17C158.05,100.19,148.1,91.25,149.37,80Z"/><path class="cls-11" d="M98.06,114.3c3.43.55,6.73,2,10.31,1.6,1.95-3.27.85-6.86,1-10.3.19-4.34.09-8.7.06-13,0-1.94.06-3.81,1.41-5.38,11.22-3.89,24.88,5.06,23.84,20.89-.92,13.9-15.56,20.75-25.12,17.15A26.87,26.87,0,0,1,99,118.1,4.19,4.19,0,0,1,98.06,114.3Z"/><path class="cls-12" d="M190.8,187.29c-3.16.13-5.2-.7-7.32-1.06-8.25-1.38-16.55-2.49-24.82-3.77-6.93-1.08-13.85-2.24-20.76-3.42A1.44,1.44,0,0,1,137,178a1.36,1.36,0,0,1,1.52-1.48c7.21.94,14.42,1.91,21.62,3,9.86,1.48,19.72,3.07,29.57,4.63a8.32,8.32,0,0,1,2.32.64A2.55,2.55,0,0,1,193,186c.25.51-.05,1-.72,1.13A10.24,10.24,0,0,1,190.8,187.29Z"/><path class="cls-13" d="M193,177.1a16.13,16.13,0,0,1-8.84.2c-15.3-3.18-31-4.2-46.18-7.77-.34-.08-.53-.84-.89-1.46a17.83,17.83,0,0,1,8.88-.13c15.29,3.21,30.95,4.2,46.17,7.78C192.45,175.81,192.64,176.56,193,177.1Z"/><path class="cls-14" d="M191.13,197c-12-2-23.71-4-35.42-5.82-5.06-.82-10.16-1.41-15.23-2.18a9.84,9.84,0,0,1-3-1.05c-.34-.18-.43-.91-.53-1.42,0-.09.4-.39.64-.42a10.46,10.46,0,0,1,3.18-.21c3.44.73,6.89,1.24,10.38,1.71,10.69,1.42,21.35,3.13,32,4.79,2.93.46,5.84,1.09,8.74,1.71.75.17,1.66.47,1.43,1.57a1.66,1.66,0,0,1-1.73,1.29Z"/><path class="cls-15" d="M193,205.12a37.32,37.32,0,0,1-11.9-.22c-12-1.94-24-4-36-6-1.59-.27-3.25-.12-4.87-.29a6.16,6.16,0,0,1-2.28-.73,1.81,1.81,0,0,1-.8-1.26c0-.34.57-1,.89-1a45.47,45.47,0,0,1,7.3.21c12,1.93,24,4,36,6,2.92.48,6-.1,8.81,1.24C191,203.55,192.3,203.38,193,205.12Z"/><path class="cls-16" d="M180.83,157.53a6.22,6.22,0,0,1-6.61,5.76,5.86,5.86,0,0,1-5.85-6.38,6,6,0,0,1,6.49-5.76A6.27,6.27,0,0,1,180.83,157.53Z"/><path class="cls-16" d="M190.18,166.05a6.12,6.12,0,0,1-5.87-6.48,6.1,6.1,0,1,1,12.19.46A6.12,6.12,0,0,1,190.18,166.05Z"/><path class="cls-17" d="M163.88,154.06a6.11,6.11,0,1,1-12.22.31,6,6,0,0,1,6-6.3A5.9,5.9,0,0,1,163.88,154.06Z"/><path class="cls-18" d="M141.64,158.12a6,6,0,1,1,5.92-6.22A5.86,5.86,0,0,1,141.64,158.12Z"/><path class="cls-19" d="M173.35,234.34c.22,14.16-9.74,24.76-23.23,25.06a24,24,0,0,1-24.38-23.25c-.49-14.7,10.54-25.52,23.87-25.62C164,210.43,174.21,222.75,173.35,234.34Z"/><path class="cls-19" d="M122.87,175.09c.12,14.32-9.74,25.14-23,25.22-13.78.08-24.14-11.49-24.47-22.54-.5-16.34,11.2-26.17,23.9-26.44C113.25,151,124.51,164.27,122.87,175.09Z"/></svg>