<svg id="图层_1" data-name="图层 1" xmlns="http://www.w3.org/2000/svg" viewBox="0 0 1920 1080"><defs><style>.cls-1{fill:#42210b;}</style></defs><path class="cls-1" d="M949.31,294.4c-35.4-42-82.66-73.06-134.41-91.1s-108.27-22.73-162.17-12.36c-29.94,5.77-59.55,16.24-85.67,32.08a205.68,205.68,0,0,0-60.42,56.33C475.28,323,461,376.86,455.84,429.75c-2.61,26.69-3.42,54.15-1.11,80.9.73,8.46,3.78,16.58,6.88,24.42q6.27,15.85,14.11,31c4.14,8,8.48,16.27,14.25,23.28,4.27,5.19,9.59,9.67,14.39,14.37l19.54,19.15L563,661.21c10.35,10.15,20.58,20.44,31.85,29.58,10.71,8.69,22.61,17.45,36.15,21a64.09,64.09,0,0,0,36.27-1.42c11.47-4,21.67-11.44,25.85-23.2,3.91-11,4.69-23.94,3.22-35.45-1.58-12.38-6.26-24.68-15.56-33.35-8.69-8.09-20.12-12.3-31.79-13.52a53.44,53.44,0,0,0-32.34,6.81c-11,6.53-17.7,16.89-21.44,28.89-9.15,29.4-8.53,62.24,3.43,90.75,11,26.29,32,48.39,58,60.26,22.88,10.44,52,15.74,73-1.34,9.73-7.89,16.26-19.79,20-31.61,3.32-10.6,1.66-22.88-2-33.15s-10-21.14-20.19-26c-10.56-5-24.86-5.13-36.24-3.9-11.84,1.28-24.28,4.65-32.49,13.84a44.79,44.79,0,0,0-11.36,25.83c-2,20.21,9.49,39.66,21.73,54.72a167.63,167.63,0,0,0,53.4,42.83c21.09,10.78,45.72,17.39,69.09,10.19,21.47-6.62,40.28-26,37.37-49.85s-25-38.71-47.55-40.74a46.19,46.19,0,0,0-49,34.66c-5.53,21.09,3.47,43.23,15.73,60.19A145.21,145.21,0,0,0,804,893.84c22,10.15,49,14.43,71.27,2.23,10.56-5.78,15.86-15.11,20.46-25.79,4.83-11.2,9.44-23.44,9.34-35.82-.09-11.13-5.4-19.62-15.54-24.2-10.55-4.77-22.42-6.47-33.9-7-9.89-.43-20.85-.15-30.16,3.55-10,4-16.12,12.77-17.67,23.26-3.11,21.12,7.32,47.36,23.72,61,18.42,15.34,47.41,16,65.89.39a39.07,39.07,0,0,0,10.19-13.6c2.63-5.78,4.2-13.64,9.9-17.24,11.16-7,28.25,2,38.12,7.42,24.92,13.74,47,33.65,77,34,11.65.13,23.86-2.61,33.28-9.73a39.85,39.85,0,0,0,15.82-34.26c-2.24-31.5-32.32-52.89-54.68-71L943.8,719.83l-9.09,11.78,91.38,56.48c15,9.26,29.88,18.7,45,27.75,13.38,8,27.6,15.57,43,18.92,24.56,5.36,55.77-2,67.56-26.56,14.09-29.36-8.76-58-29.56-76.79a240.48,240.48,0,0,0-87.9-50.5c-7.55-2.41-12,7.26-7.3,12.54a410.48,410.48,0,0,0,84.56,72.31c29.58,19,66.69,36.74,102.58,26.53,29.67-8.45,54.54-35.27,49.67-67.55-4.62-30.7-34-50.81-59-64.9-40.55-22.85-81.9-44.4-122.83-66.57-7.18-3.89-15.82,6-9.09,11.78a475,475,0,0,0,177,95.6A458,458,0,0,0,1329.34,712c11.53,2,22-3.7,31.32-10,4.41-3,8.92-6.3,12.39-10.39,4.1-4.84,5.39-11,7.13-17,4.43-15.22,8-31.2,7.6-47.14-.38-15.38-4.87-30.16-14.85-42.05-10.71-12.75-26.54-19.54-41.61-25.62-36.21-14.62-72.89-28.1-109.69-41.18s-73.48-25.84-110.38-38.27c-36.07-12.14-72.59-22.49-110.68-25.59s-77.06-.41-114.94-7.39a239.31,239.31,0,0,1-53.38-16.27c-9.83-4.34-30-13.58-20.38-27.32,9.85-14.05,29.8-10.05,44.15-8.2,16.3,2.11,32.36,1.3,48.09-3.73,30.28-9.69,55.65-31,76.48-54.45,41.15-46.29,69.59-110.41,131.63-132.75,30.35-10.93,63.88-13.67,95.94-12.39a308.29,308.29,0,0,1,87.16,16.24c56.2,19.17,107.8,56.38,137.57,108.51,17.39,30.46,23.14,64.71,16.23,99.15s-23.46,66.24-42,95.85c-9.21,14.72-19.06,29-29.09,43.19-5.59,7.9,7.41,15.4,13,7.57,39.18-55.37,83.46-121.5,75.18-192.85C1458.7,305.45,1409,251.35,1355,219.47c-51.88-30.65-113.42-44.84-173.48-42.18-34,1.51-69.38,7.34-99.06,24.8-27.49,16.16-48.41,40.69-67.43,65.81-19.25,25.44-36.79,52.22-60,74.37-22,21-49.73,39-81.05,39.57-17.72.31-36.1-6.67-53.57-1.27-14.52,4.48-28.16,17.77-25.74,34.05,2.34,15.79,17.56,24,30.8,29.78a255.32,255.32,0,0,0,54.31,17.07c38.27,7.35,77.31,5.21,116,7.91,38.39,2.68,75.14,13.19,111.45,25.42,74.36,25,148.88,50.46,221.56,80.05,14.36,5.84,29.45,13,37.46,27,7.35,12.8,7.52,28.45,5.42,42.69a189.3,189.3,0,0,1-5.12,23.05q-1.57,5.61-3.34,11.16c-.09.28-1.09,3.25-.54,1.8.35-.91,0,0-.16.18a10.18,10.18,0,0,1-1.52,1.81,59.38,59.38,0,0,1-12.91,9.62c-3.89,2.29-8.5,5.09-13.1,5.66,1.34-.17-.46-.06-.86-.13q-2.88-.48-5.76-1c-4.38-.8-8.76-1.66-13.11-2.59q-12.26-2.61-24.36-5.88a464.53,464.53,0,0,1-48.35-16,457.34,457.34,0,0,1-89.65-47.48,446.62,446.62,0,0,1-39.59-30.29l-9.08,11.78L1206,661.32c24.39,13.21,54.6,26.73,68.35,52.41,6,11.14,7,24.82,1.17,36.26s-16.33,20.27-28.16,25.29c-30.93,13.14-65.22-2.09-91.77-18.32a392.78,392.78,0,0,1-88.13-74.12l-7.3,12.54A222,222,0,0,1,1132,734c17.42,14.11,45.51,38,37.72,63.66-6.77,22.37-35.64,27-55.07,21.88C1101.22,816,1089,809.13,1077.15,802c-13.74-8.29-27.32-16.85-41-25.29l-93.9-58c-7.07-4.37-15.82,6.33-9.09,11.78l77.09,62.29c11.69,9.45,23.93,18.49,34.65,29.06,8.86,8.72,17.68,19.06,20.89,31.35,2.57,9.83-.22,20.57-8.42,27-7.82,6.08-18.41,7.43-28,6.86-25.5-1.52-45.45-20.53-66.91-32.21-11.28-6.15-24.34-11.94-37.49-11.22-6,.33-11.86,1.85-16.77,5.34-5.89,4.19-9,10.29-11.66,16.81-3.83,9.37-8.64,16.56-18.57,20.08a39.63,39.63,0,0,1-27.79-.58c-16.41-6.63-26.59-27.66-27.83-44.49-.51-7,.23-14.81,6.22-18.77s16.55-3.83,23.91-3.71c9.67.16,19.83,1.24,28.9,4.8,7.49,2.94,9.37,7.06,8.49,15.55-1,10-5.07,20-9.31,29.09-1.8,3.85-3.52,7.83-6.56,10.88a31.28,31.28,0,0,1-12.73,7.32c-20.07,6.41-41,.4-58.78-9.6-18.19-10.24-34.62-24.92-45.74-42.68-8.64-13.78-15.49-32-8.22-47.89,7.81-17,25.66-21.76,42.57-16,15.84,5.39,28,21.46,21,38.3C804,827.25,779.78,833.16,761,830.39S724.3,818,709,807c-15.61-11.22-30-25.54-39.39-42.47-7.23-13.07-11-28.41-3-41,5.06-8,13.41-11.19,22.44-12.62,9.52-1.51,21.5-1.67,30.72,1.65,7.48,2.69,11.85,12.21,14.08,19.29,2.91,9.2,3.34,18-.24,27s-9.27,17.87-17.82,22.92-18.95,5.39-28.69,3.76c-24.23-4.06-46.31-17.81-61.39-37.12-16.54-21.17-23.22-48.36-21.5-74.91.79-12.19,2.82-26.59,8.89-37.39,4.49-8,12-13.2,20.87-15.38,18-4.45,38.48,3.71,45,21.8,3.46,9.65,3.82,20.45,2.16,30.5s-5,17.06-14.45,21.56c-8.28,3.92-18.46,5-27.48,3.66-11.52-1.73-21.88-8.84-30.9-15.8-9.85-7.61-18.81-16.29-27.69-25l-34.89-34.19-34.89-34.2c-7.4-7.25-10.9-10.63-15.84-19.06-9.3-15.84-17.56-33-23.05-50.57-.51-1.63-1-3.27-1.41-4.93-.15-.64-.88-4.55-.65-2.73-.69-5.58-.69-11.34-.88-17q-.65-18.23,0-36.48c1.7-47.51,10.15-96.13,31.33-139.06,10.23-20.74,23.36-40,39.79-56.3,18.95-18.84,42-33.16,66.76-43,92.29-36.7,200.69-19.77,280.8,37.66A281,281,0,0,1,938.7,305c6.23,7.4,16.79-3.26,10.61-10.6Z"/></svg>