<svg id="图层_1" data-name="图层 1" xmlns="http://www.w3.org/2000/svg" viewBox="0 0 300 300"><defs><style>.cls-1{fill:#010101;}.cls-2{fill:#d3cac5;}.cls-3{fill:#ed849d;}.cls-4{fill:#fcf5e7;}.cls-5{fill:#fdfcfc;}.cls-6{fill:#fbfaf8;}.cls-7{fill:#fdfbfb;}.cls-8{fill:#fdf8f9;}.cls-9{fill:#fcf2f4;}.cls-10{fill:#fdf9fa;}.cls-11{fill:#fdf7f8;}.cls-12{fill:#fcf5f6;}.cls-13{fill:#fcf3f5;}.cls-14{fill:#191817;}.cls-15{fill:#ee8ea5;}.cls-16{fill:#ee89a1;}.cls-17{fill:#ee8da4;}.cls-18{fill:#ed869f;}.cls-19{fill:#ef91a7;}</style></defs><path class="cls-1" d="M268.59,40.52c3.71,1.14,1.69,3.4.9,5.21-5.43,12.45-13.35,23.29-22,33.67-.77.92-1.9,1.92-2,3-1,12.61-8.69,21.83-15.76,31.36-36.24,48.8-72,97.92-102.51,150.61a260.53,260.53,0,0,1-22.19,32.21c-1.91,2.39-3.66,1.91-5.92,1.18-14-4.54-26.2-12.33-37.77-21.11-13.21-10-26.59-19.92-38-32.09A89.94,89.94,0,0,1,12.12,230.1c-1.32-2.15-1.37-3.83.22-5.68a13.26,13.26,0,0,1,2-2.44c11-7.61,17.4-19.43,26.76-28.55,9.5-9.27,18.58-19,27.42-28.93,16.86-18.93,33.14-38.39,50.18-57.16C135.35,89,149.83,68.65,167.88,51.51c5.91-5.61,11.59-11.57,20.16-13.33,1.38-.29,2.47-2.33,3.54-3.68a257.6,257.6,0,0,1,26-28.09c4.91-4.58,10.1-5.62,16.32-2.94,12.93,5.58,23.66,14.13,33,24.47,2.54,2.82,5.34,6.52,1.23,10.55-2.68.82-3.71-1.23-5-2.86-8.15-10.38-18.68-17.76-30.21-23.86-4.19-2.21-8.06-1.83-11.54,1.55-7.51,7.32-14.35,15.25-21.49,22.93-2.47,2.66-2,5.09.29,7.82,10.14,11.89,22.44,21,36.2,28.17,5.37,2.79,6.55,2.37,9.87-2.67,5.39-8.17,10.55-16.5,16.45-24.33C264.21,43.18,265.57,40.78,268.59,40.52Z"/><path class="cls-2" d="M268.59,40.52c-7.72,8.19-13.19,18-19.33,27.3-6.58,10-7,10.33-17.19,4-12-7.44-23.7-15.39-33.2-26.18-3.74-4.24-3.88-7.82.07-11.31,8.33-7.36,14.66-16.64,23.17-23.82,2.62-2.21,5.21-2.63,8.14-1.43a82.07,82.07,0,0,1,34.39,26.52c1,1.31,1.87,2.4,3.44,2.86Z"/><path class="cls-3" d="M190.25,160.83,164.07,199.9c-15.38,22.93-32,45-48.92,66.75-5.38,6.91-5.16,7.24-13.17,3.47C77.91,258.8,57.39,242.77,39.75,223c-1.16-1.31-2.42-2.52-3.63-3.78-1.4-1.14-3.33-1.39-4.62-2.72l5.34-4.86c6.63-5.68,12-12.51,17.77-19,8.69-9.82,17.49-19.54,26-29.51,2.8-3.27,5.87-3.28,9.2-.68,5.09,4,8.52,9.21,11.32,14.9,1.23,2.5,1.15,4.83-2.19,5.73-1.6.43-3.09,1-3,3a3.08,3.08,0,0,0,2,2.83c1.84.74,3.05-.5,4.07-1.65,1.84-2.07,3.77-3.7,6-3.09a5.26,5.26,0,0,1-5.25-3.74c-2.63-7-7.22-12.68-12.22-18.13-4-4.39-4-6.4-.07-10.88,17.27-19.51,32.27-40.92,50.09-59.94A315.23,315.23,0,0,1,175.5,59.72c5.55-4.38,12.55-7.23,15.89-14.12,8.46,6.93,16.83,14,25.43,20.74,6.16,4.83,12.62,9.28,19,13.85,1.95,1.4,2.62,2.77,1.51,5.23-12.08,27-28,51.69-46.25,74.87a3.59,3.59,0,0,1-.85.6c-6.22,1.21-10.63,5.76-15.82,8.81C152.65,182.44,129.73,192,105,196.81a10.52,10.52,0,0,0-2.51.75,1.71,1.71,0,0,0-.86,1c2.31.8,4.48.15,6.57-.47,25-7.46,48.95-17.45,71.13-31.43C182.76,164.5,185.86,161.39,190.25,160.83Z"/><path class="cls-4" d="M23.15,234.76c2,1.13,3.23-.2,4.56-1.37,2.36-2.09,4.71-4.19,7.17-6.15,1.51-1.19,2.86-3.24,5-.26,1.73,2.38,1.14,3.4-.84,5a62.13,62.13,0,0,0-6.3,6.27,1.38,1.38,0,0,0,.18,2.25c.74.48,1.32-.07,1.79-.53,2.12-2.08,4.16-4.24,6.31-6.3,1.7-1.64,3.38-1.64,4.66.54,1.05,1.79,4.43,2.68,1.65,5.93-2.35,2.76-5.25,5.42-6.24,10.24,4.07-2,5.65-5.28,7.66-7.86,1.86-2.39,2.77-2.21,4.69-.31,3,3,7.63,5.05,9,8.52s-3.84,6.31-5.3,9.91c-.32.78-1.07,1.4-.33,3.21,3-2.15,4.06-5.4,6-7.94,1.13-1.49,2.18-4.39,4.64-1.67C69,256,74,256.41,70.24,260.71a33.75,33.75,0,0,0-4.42,7.09c-.53,1.06-2.54,2.49-.84,3.55,2,1.21,2.43-1.37,3.14-2.42a51.44,51.44,0,0,0,4-7.35c1-2.28,2.08-2.52,4.28-1.13,6,3.83,6,3.64,2.22,9.94-1.54,2.55-3.91,4.7-4.92,8.92,5-2.68,7.15-6.62,9.36-10.29,1.48-2.47,2.75-2.89,5.33-1.51,4.58,2.45,9.38,4.5,14.44,6.88-3.05,4-5.14,8.7-7.12,13.42-.31.76-.9,1.67.15,2.31s1.6-.25,2.12-.88A33.73,33.73,0,0,0,104,277.18c.46-1.52.49-2.49,2.48-1.92s2.32,1.34,1.43,3.24c-1.91,4.11-2.15,8.76-4.15,12.93-1.4,2.92-2.9,3.28-5.69,2.18-12.17-4.79-22.72-12.15-33-20C51.3,263,38.12,251.85,26.55,238.89c-1.16-1.29-2.13-2.74-3.18-4.12Z"/><path class="cls-5" d="M191.39,45.6c2.39,2.62.25,4-1.54,5.37-7.33,5.64-14.79,11.12-22,16.89-22.32,17.79-39.93,40-57.47,62.19-5.72,7.26-11.75,14.28-17.83,21.24-3.16,3.62-4.93,6.42-.24,10.58a41,41,0,0,1,11.85,18.3c.86,2.68,2.49,3.1,4.74,2.86,1.83-.19,3.64-.55,5.54-.85,0,2.13-1.62,2.31-2.52,2.43-4.17.56-7.82,1.68-10.45,5.38a3.17,3.17,0,0,1-4.73.32c-1.64-1.38-3-3-2.61-5.39a3.83,3.83,0,0,1,3.47-3.39,35.34,35.34,0,0,1,3.65-.15,41.5,41.5,0,0,0-14.14-19.27c-2.72-2-3.9.23-5.13,1.61-8.93,10-17.5,20.41-26.69,30.21-5.81,6.19-11,13.13-18.42,17.67,29-35.36,58-70.73,88.41-104.94a547.79,547.79,0,0,1,62-60.28C188.4,45.4,189.52,43.31,191.39,45.6Z"/><path class="cls-6" d="M31.5,216.46c2.57-.83,4.59-.73,4.63,2.72-.24,2.77-1.54,4.64-3.82,6.45-3.35,2.66-6.13,6.05-9.15,9.13h.21c-.58-.64-1.14-1.32-1.76-1.92-3.29-3.2-3.5-6,.87-8.44C26.08,222.43,27.06,217.48,31.5,216.46Z"/><path class="cls-7" d="M190.25,160.83a277.28,277.28,0,0,1-75.48,36.73c-4.32,1.35-8.57,3.13-13.22,3-1.31,0-3.26.4-3.45-1.43-.16-1.48,1.51-2.21,2.83-2.72a18.54,18.54,0,0,1,3-.81c28.66-5.59,54.83-17.17,79.49-32.56,1.88-1.18,3.65-4.27,6.76-2.15Z"/><path class="cls-8" d="M144.63,156.18c1.46-2.7,3.26-4.49,5.51-4.38,2.54.13,2.39,3.09,3.14,4.91a25.4,25.4,0,0,1,1.2,5.08c.71,4-.06,7.59-4.17,9.11-3.78,1.4-7-.61-9.11-3.56-5.32-7.54-7.9-15.93-6.12-25.23.89-4.67,4.18-7.21,7.45-6.08,1.17.41,2.38.85,2.32,2.42a2,2,0,0,1-2.37,2.15c-4.23-.28-4.87,2.81-5.19,5.79-.79,7.51,1.91,14.1,6.1,20.09a5.45,5.45,0,0,0,6.56,2c2.62-1,2.49-3.46,2.25-5.82C151.53,156,151,155.39,144.63,156.18Z"/><path class="cls-8" d="M167,157.06a18.87,18.87,0,0,1-4.54-8c-1.09-3.31-1.64-6.94,1.94-8.78,3.4-1.75,6.31.92,8.42,3.16,2.82,3,3.6,7.09,3.64,11.13,0,2.3-.67,4.64-3.24,5.4C170.21,160.92,168.43,158.83,167,157.06Z"/><path class="cls-9" d="M128.55,173.79c-3.8,1.08-1.72,3.49-1.08,5.71.31,1.08,1.09,2.8-.41,3.22-2.2.61-1.88-1.56-2-2.77-.65-6.74-4-12.19-8.17-17.23-2.71-3.31-1.06-5.13,2-6.35,4.19-1.71,9.74.72,12,5C133.29,165.87,132.44,170.65,128.55,173.79Z"/><path class="cls-10" d="M163.79,163c-4.8-2.37-6.71-6.73-8.67-11-2.4-5.26-3.64-10.86-4.91-16.45-.36-1.58-.07-2.81,1.54-3.35a1.46,1.46,0,0,1,2,1.2C155.8,143.64,158.26,153.79,163.79,163Z"/><path class="cls-11" d="M101.19,162c-1.18-2.66-3.78-6.3-.54-7.34,2.85-.92,4.61-7.06,8.87-2.7,1.93,2,2.43,13.21.48,13.87C106.07,167.16,104.06,163.24,101.19,162Z"/><path class="cls-9" d="M178.77,148.45c.48.47.95.94,1.42,1.42,1.4,1.43,2.88,4.12,5,2,2.27-2.27.44-4.78-1.78-6-4.11-2.29-7.92-4.59-7.88-10,0-1.82.42-3.54,2.26-4.4a4.42,4.42,0,0,1,4.49.33c1.07.71,1.85,1.66,1.38,3.08s-1.45,1.31-2.55,1.14-2.43-1.51-3,.32a4.07,4.07,0,0,0,1.17,4.34,58,58,0,0,0,5.51,3.94c2.39,1.62,3.74,3.81,3,6.66a3.93,3.93,0,0,1-4.36,3c-3.24-.29-4.54-2.51-5.58-4.93Z"/><path class="cls-12" d="M189.06,143.84c1.42.06,1.5.84,1.81,1.42a3.77,3.77,0,0,0,4.28,2.21,2.71,2.71,0,0,0,1.64-1.78,4.18,4.18,0,0,0-2-4.48c-2-1.38-4.29-2.42-6-4.07-3.44-3.32-3.28-8.66,0-10.4a4.5,4.5,0,0,1,4.92.46,2,2,0,0,1,.78,2.31c-.65,1.81-2,1.39-3.44,1.08-2.54-.54-2.37,1.25-2.09,2.86s1.52,2.71,2.76,3.67,2.59,1.76,3.82,2.72c2.34,1.81,4,3.93,2.76,7.15a3.52,3.52,0,0,1-3.52,2.57C192.22,149.6,190.45,147.88,189.06,143.84Z"/><path class="cls-13" d="M116.93,180.1c-3.42-2.2-4.82-5.31-6.25-8.4-.54-1.16-1-2.41.5-3,1.25-.52,1.84.59,2.21,1.56C114.6,173.5,115.76,176.81,116.93,180.1Z"/><path class="cls-14" d="M48.67,257.35a13.62,13.62,0,0,1,7.78-10.79A18,18,0,0,1,48.67,257.35Z"/><path class="cls-1" d="M92.47,271.28c-.53,5.75-3.42,10.29-7.16,14.31L84,284.82Z"/><path class="cls-15" d="M101.31,188.09c-1.53,1.5-2.78,1-3.83,0S95.64,185.36,97,184s3-.71,4.24.21C103.1,185.55,101.17,186.93,101.31,188.09Z"/><path class="cls-16" d="M166.46,147.83c1.73.79,3,2.81,5.18,1.33s2.25.57,2.51,1.75c.52,2.33,1.38,5.34-1.17,6.53-2.19,1-3.26-1.89-4.47-3.4C167.12,152.31,166,150.36,166.46,147.83Z"/><path class="cls-17" d="M167.93,147.06c-.86-1-1.38-2.19-.5-3.26s2.19-.7,3.19.14,1.52,1.89.39,3.07S169,148.21,167.93,147.06Z"/><path class="cls-18" d="M128,160.62c2.25,2.46,3.16,4.84,2.48,7.62a4.41,4.41,0,0,1-4,3.59c-2,.21-2.58-1.42-3.21-2.87a23.6,23.6,0,0,1-1.79-4.35c-.37-1.8-3.51-3.62-1-5.32A5.3,5.3,0,0,1,128,160.62Z"/><path class="cls-19" d="M105.71,157.14c.94-1.23-.25-3.11,1.38-4.55,2.62,2.38,2.34,5.29,1.28,7.88-.75,1.85-2.81.86-4.09.2-1.51-.78-3.36-2.25-2.49-4C102.83,154.63,104.24,157.66,105.71,157.14Z"/></svg>