<svg id="圖層_1" data-name="圖層 1" xmlns="http://www.w3.org/2000/svg" xmlns:xlink="http://www.w3.org/1999/xlink" viewBox="0 0 213.33 191.03"><defs><style>.cls-1{fill:#f9c898;}.cls-2{fill:#d48157;}.cls-3{opacity:0.8;}.cls-4{fill:url(#未命名漸層_14);}.cls-5{fill:#412414;}.cls-6{fill:#6a8a32;}.cls-7{fill:#603b28;}</style><linearGradient id="未命名漸層_14" x1="30.66" y1="159.89" x2="134.09" y2="56.47" gradientUnits="userSpaceOnUse"><stop offset="0" stop-color="#afd3b4"/><stop offset="1" stop-color="#f2ea80"/></linearGradient></defs><title>myLogo</title><path class="cls-1" d="M1.1,110C3.28,123.26,5,142.37,14.73,151.7c3.72,3.58,8.31,8.24,6.41,13-.45,1.13-1.22,2.48-.44,3.4a2.68,2.68,0,0,0,1.05.66c8.51,3.58,27.61,14.73,36.12,18.31"/><path class="cls-2" d="M79.46,32.11a79,79,0,0,0-78.83,74C3,137,33.16,148.35,60.18,165.44c9.27,5.86,7,17,3.84,20.17-1.34,1.33-3.44,1.8-6.15,1.49a79.07,79.07,0,0,0,100.57-76c0-21.38-11.83-42.46-25.76-56-8.37-8.15-15.06,4.26-15.06,4.26S126.22,47.56,116,41C108,36,92.62,32.11,79.46,32.11Z"/><ellipse class="cls-1" cx="79.54" cy="119.22" rx="70.45" ry="70.87"/><g class="cls-3"><path class="cls-4" d="M79.46,32.11a79,79,0,0,0-78.83,74C3,137,33.16,148.35,60.18,165.44c9.27,5.86,7,17,3.84,20.17-1.34,1.33-3.44,1.8-6.15,1.49a79.07,79.07,0,0,0,100.57-76c0-21.38-11.83-42.46-25.76-56-8.37-8.15-15.06,4.26-15.06,4.26S126.22,47.56,116,41C108,36,92.62,32.11,79.46,32.11Z"/></g><path class="cls-5" d="M117.64,18.23c.09,10.7,19.1,3.22,24,1.48,3.1-1.1,6.16-2.37,9.3-3.34A20.1,20.1,0,0,1,157,15.21c-.75,0,3.89.9,4.54.81,1.15-.17,1.61,0,2.4-1.08a5,5,0,0,0,.46-1.37l.12-1q-.24-6,2.92.38c-.9.61,0,2.08.86,1.46,2.63-1.78,6.62-6,3.11-9.14-2.68-2.4-6.34-.14-7.65,2.55-1.55,3.2.09,6.51-5,5.84-3.77-.5-7.47.76-11,2-3.91,1.39-7.75,2.93-11.72,4.13-3.15,1-16.75,5.47-16.81-1.53a.85.85,0,0,0-1.7,0Z"/><path class="cls-5" d="M120.71,17.19c5.93-3.23,11.8-6.76,18-9.43,6.66-2.85,13.75-4.14,20.87-5.25,1.08-.17.62-1.8-.45-1.64C152,2,144.78,3.3,138.05,6.19c-6.27,2.69-12.2,6.27-18.19,9.53-1,.53-.11,2,.85,1.47Z"/><path class="cls-5" d="M132.8,23a15.33,15.33,0,0,1-6.12,16.33.85.85,0,0,0,.85,1.47,21.7,21.7,0,0,0,11.72-17.53c.1-1.09-1.6-1.08-1.7,0a20,20,0,0,1-10.87,16.06l.85,1.47a17.12,17.12,0,0,0,6.91-18.25c-.26-1.06-1.9-.61-1.64.45Z"/><path class="cls-6" d="M149.8,22.94c.07,5.57,4,9.55,9,11.59,8,3.3,16.51,2.62,24,7.62,8,5.28,12,13,14.43,21.94,2.09,7.84,4.92,15,9.91,21.49.53.68,2.73,2.66,2.67,3.2-.27,2.11-4.35,1.72-6.11,1.78a32.92,32.92,0,0,1-14.62-3A37.09,37.09,0,0,1,171.05,69a47,47,0,0,1-4-15.25c-.08-.88-.76-4-.21-4.8,2.23-3.39,7.77,1.38,9.3,2.7,7.62,6.64,10.76,16.57,13.37,26a.37.37,0,0,0,.71-.2c-2.9-10.44-6.61-21.74-16-28.19-1.48-1-5.82-4.29-7.64-2.32s-.16,8.43.27,10.9c3.63,20.74,22.59,38.22,44.44,32.2a.37.37,0,0,0,.16-.61,55.06,55.06,0,0,1-13.07-23.92c-1.82-6.77-3.78-12.86-8.5-18.2a33.67,33.67,0,0,0-16.06-10.09c-8.46-2.37-23.15-2.2-23.3-14.3a.37.37,0,0,0-.73,0Z"/><path class="cls-7" d="M21.11,155.66c3.63,1.29,6.41-1.71,8.08-4.55a.85.85,0,0,0-1.46-.86c-1.29,2.19-3.28,4.79-6.17,3.77-1-.37-1.48,1.27-.45,1.64Z"/></svg>