<svg id="图层_1" data-name="图层 1" xmlns="http://www.w3.org/2000/svg" viewBox="0 0 300 300"><defs><style>.cls-1{fill:#fefefe;}.cls-2{fill:#010001;}.cls-3{fill:#020202;}.cls-4{fill:#060606;}.cls-5{fill:#f3adad;}.cls-6{fill:#62687f;}.cls-7{fill:#d3c3df;}.cls-8{fill:#010101;}.cls-9{fill:#0f0f0f;}.cls-10{fill:#62687e;}.cls-11{fill:#fdfdfd;}.cls-12{fill:#fbfbfb;}.cls-13{fill:#f1acac;}.cls-14{fill:#f0abab;}</style></defs><path class="cls-1" d="M284.07,235.89c-.46.3-.64,1-.25,1.1,3.68,1,1.57,2.47.33,3.86a2.44,2.44,0,0,1,.66,2c-1.46,13.73-9.18,23.71-24.3,23.95-6.39.11-12.36-1-17.28-5.42-1.66-1.51-2.7-.92-3.58.83-3.64,7.25-9.73,9.82-17.59,9.95a40.81,40.81,0,0,1-22.25-5.62c-3-1.79-5.85-3.81-6.12-7.79-2-1.06-4.22-.8-6.32-1.23-1.15-.24-2.31-.16-3-1.31,0-.52,1-1.54-.42-1.44-14.58,1-23.6-17.29-21.92-29.1.07-.5,1.52-2.22-.82-2-2.25-.14-2.27-2.38-3.39-3.59-3.69-.91-4-4.25-4.33-7-1-9,1-17.52,4.92-25.6a11.54,11.54,0,0,1,4.4-4.61,6,6,0,0,0,2.89-4.28,4.41,4.41,0,0,1,1.79-2.16c2-1.31,2.11-3,1-4.93-3.07-5.13-3.23-10.23.58-15,4.13-5.2,9.18-8.39,16.22-6.34.57.16,1.16.29,1.62-.28.68-6,6.24-7.4,10-10.5a18.91,18.91,0,0,1,3.44-1.86c7.6-3.26,14.84-1.15,22.24,1.51a17.73,17.73,0,0,0-3.19-1.44c-1.23-.45-2.47-.82-3.73-1.17-1-.27-2.19-.16-2.65-1.42,1-1.71,2.71-1.17,4.2-1.35,4.73.61,9.29,1.66,13,5,1.54,3.1,2.1,3.34,4.65,1.27,6.46-5.23,13.49-5.55,20.9-2.61a31.78,31.78,0,0,1,14.74,11.52,12.77,12.77,0,0,1,2.51,7.66c0,1.54.6,2,1.9,1.78,6.13-1,9.63,2.84,12.45,7.26,4.19,6.59,6,14,6.44,21.76a15.54,15.54,0,0,1-1.58,8c-1,1.94-.9,3.27.95,4.53a9.5,9.5,0,0,1,3.88,5.86c2,9,2.22,17.83-3.51,25.74C291.2,234.54,288.33,236.84,284.07,235.89Z"/><path class="cls-2" d="M284.07,235.89c5.61-.65,9-4.09,11.07-9a30.9,30.9,0,0,0,1.35-19.66c-.77-3.26-2.27-6.05-5.43-7.59-1.17-.58-1.77-1.16-.92-2.44,3.14-4.74,2.91-9.92,2-15.21a45.81,45.81,0,0,0-5.68-16.08c-3.85-6.43-7-7.87-14.45-6.33,1.38-7.64-3.06-12.37-8.36-16.53-5.81-4.56-12.22-7.46-19.89-6.29a17.26,17.26,0,0,0-9.15,4.57c-1.13,1-2.28,1.84-3.82,1.09s-1.43-2.06-1.18-3.43a69.55,69.55,0,0,0,5.26-26.57c0-12.08-2.81-23.73-9.2-34.22A79.81,79.81,0,0,0,199.6,51.52c-9.69-5.36-19.75-9.51-30.9-10.91-12.86-1.6-25,.7-36.73,5.75a71.07,71.07,0,0,0-19.21,12.36,21,21,0,0,0-4.55,5c-9.66,10.71-14.79,23-13,37.65.34,2.84-.43,4.93-3,6.29-.73.39-1.71.76-1.66,1.7.22,3.77-.94,7.68,1,11.26a6.66,6.66,0,0,1,.78,5.18c-3.63,12.63,1.86,22.74,9.32,32,12.42,15.38,29,24.12,48,28.78,2.46.61,4.07.17,5.18-2.31,1.22-2.75,3-5.25,5.83-6.57,2-.89,4.06-1.76,5.59.81.61,1.86.66,3.55-1.52,4.43-3.47,1.4-5.4,4.25-6.69,7.49a50.61,50.61,0,0,0-3.78,21.91c.18,2.93.79,5.9,3.55,7.76-1.61.35-2,.22-3.21-1.53-3-4.4-3.18-9.45-3-14.47a68.64,68.64,0,0,1,1.24-10.3c.4-2.18-.22-2.74-2.34-3.19-19.82-4.19-37-13.2-50.49-28.56a56.08,56.08,0,0,1-10.85-19.14,75.16,75.16,0,0,1-14,32,47.83,47.83,0,0,1-18.55,14.86C46.73,194.3,36.37,192,28,183.92c-9.61-9.27-14.68-21.07-18.33-33.54-7.78-26.65-7.83-53.23,1.67-79.52A63.33,63.33,0,0,1,28,45.35C41.68,32.82,56.75,33,70,46.06,79.4,55.38,84.72,67,88,79.7c.36,1.38.65,2.79,1.18,5.08,8.12-21.16,22.73-35.1,42.89-43.16s40.4-6.93,60.23,1.7c29.86,13,54.78,45.08,43.3,91.54,13.83-4.18,24.48,1.17,33.58,11,2.56,2.79,4.38,6,4.43,9.91,0,1.72.56,1.93,2.05,1.78a11,11,0,0,1,10.22,4.83c7.59,10.26,11.44,21.41,6.94,34.16-.42,1.21.08,1.6.79,2.33,7.79,8,7.56,26.69-.4,34.6a11.43,11.43,0,0,1-7.67,3.4C284.85,236.94,284.1,236.92,284.07,235.89Z"/><path class="cls-3" d="M193.69,258.73c7.17,10.37,24.4,15.7,36.36,11.26a14.54,14.54,0,0,0,8.65-8.05c1.64-3.76,1.63-3.76,4.7-1.2,9.61,8,26,7.08,34.29-2,4.62-5.05,5.51-11.48,6.46-17.88,1.32-.36,1.69.19,1.58,1.47-1.18,13.83-8.51,24.8-24.75,25.29-7,.22-13.55-1.06-19-6.45-1.5,5.39-4.2,9.68-9.3,12.1-6.91,3.3-14.13,3.16-21.41,2-5.31-.88-10.51-2.24-15.19-5.05a15.56,15.56,0,0,1-5.86-5.67c-.82-1.47-1.72-3-.71-4.7S192.15,258.58,193.69,258.73Z"/><path class="cls-4" d="M161.2,223.7c.4-.91.26-2.63,1.65-2.29s.46,1.76.33,2.72c-1.31,9.72,1.26,18.19,8.38,25a16.58,16.58,0,0,0,12.36,4.66c1.09,0,2.83-1,3.15.42s-1.74,1.32-2.71,1.95c-8.14,1.35-13.83-2.42-18-8.93A33.51,33.51,0,0,1,161.2,223.7Z"/><path class="cls-5" d="M217.28,134.53c-1.4.45-3-.45-4.29.72-1.2,1.45-2.85.72-4.3.83-3,.22-6,.49-8.61,2.33s-5,4.35-7.56,5.45c-3.48,1.48-4,3.81-4.69,6.59-2.32.2-4.14-1.61-6.55-1.43-5.69.45-9.83,3.42-13.23,7.66a23.08,23.08,0,0,0-3.8,7.29c-.8,2.45-2.41,3.35-4.91,3.14-16.45-1.35-30.71-7.34-41.25-20.37-7.18-8.88-10.72-19.1-8.93-30.76.56-3.65.43-7.38,1.1-11C113.19,89.06,120.67,76,134,66.64c9.55-6.7,20.5-8.2,31.85-7.31a78.54,78.54,0,0,1,12,1.75c13.71,3.21,23.34,11.64,30.42,23.33A57.4,57.4,0,0,1,217,117.56c-.21,4.25-1.45,8.23-2.44,12.28-.36,1.46-.9,2.88,1.31,3.26C216.51,133.37,217.37,133.47,217.28,134.53Z"/><path class="cls-6" d="M217.28,134.53l-1.56-.68c-.8-1.12-.47-2.29-.15-3.44,6-21-.4-39-13.91-54.82-15.56-18.21-44.17-23.65-65.59-13-13.49,6.74-22.4,17.8-27.41,31.8-6.89,19.23-4.62,37.64,7.72,54,9.22,12.19,22.43,18.26,37.46,20.38a44.59,44.59,0,0,0,5,.68c2.81.06,4.89.86,5.45,4,.37,2,2.55,2.37,3.67,3.71-.35.72-1.62.31-1.68,1.37-2.27-1.33-4.34-.79-6.31.67a11.92,11.92,0,0,0-3.31,3.72c-1,1.75-1.64,4.63-3,5-2.06.57-4.66-.4-6.93-1-20.07-5.78-37.39-15.67-49.38-33.4a52.25,52.25,0,0,1-7-16c-1-3.69.51-7.09,1-10.59.32-2.4,1.1-4.7-1.2-6.59-.85-.69-.47-1.79-.5-2.71a67,67,0,0,0-.19-6.81c-.3-2.06-.54-3.35,2.24-3.77,2.55-.39,3.12-2.67,2.75-5.06-2.18-14.24,3-26.24,11.35-37.27a2,2,0,0,1,1.75-1c7.68-8.92,17.42-14.76,28.49-18.28a84.3,84.3,0,0,1,50-.52,72.11,72.11,0,0,1,8.88,3.73c1.73.76,3.25,2,5.22,2.21,18.23,11.65,30.48,27.55,34.52,49.13,2.29,12.21,1,24.19-2.74,36a5.48,5.48,0,0,1-2.23,3.09A32.11,32.11,0,0,0,217.28,134.53Z"/><path class="cls-7" d="M284,195.42c.36,3.34-1.22,5.88-3.35,8.2a3.85,3.85,0,0,0-2.07,1.88c-10.08,15.26-24.93,23.95-41.55,30.25a95,95,0,0,1-33.22,6.48c-7.57.06-15.25-.38-22.36-3.67-2.52-3-3.72-6.88-6.43-9.76.41-1.52-.31-2.79-.88-4.11-2.06-4.83-4.21-9.64-5.3-14.83a15.14,15.14,0,0,1-.47-3.9c.2-4.39,1.11-5.09,5.52-4.38,4.82.77,9.57-.18,14.22-1.09,18.46-3.59,36.73-7.9,53.61-16.6,9.47-4.88,17.91-11,24-20,1.82-2.72,2.67-2.72,5-.29,3,3.19,4.69,7.19,6.4,11.14C280,181.4,281.52,188.57,284,195.42Z"/><path class="cls-2" d="M167.93,177.15A4.39,4.39,0,0,1,163,173c-.28-2.34-1.6-2.39-3.4-2.52-14-1-26.71-5.27-37.45-14.47-10.26-8.79-15.13-20.19-17.44-33.5-4.16-24,10.73-50.44,30-60.34,23.35-12,60.94-6.14,77,26.29,7.28,14.75,9.31,29.68,4,45.41-.71,0-1.43.1-2.14.11a9.15,9.15,0,0,1-1.37-.18c1.94-5.68,3.59-11.32,3.84-17.28,1-22.94-13.89-46.6-34-53.12-13.87-4.51-28.15-5.5-41.64.86-17.39,8.18-26.2,23.14-29.21,41.6-1.1,6.77-2.53,13.72-1.19,20.63,3.76,19.54,16.56,30.76,34.63,36.9a69.84,69.84,0,0,0,15.46,2.89c1.87.19,2.61-.35,3.16-2.23A22.12,22.12,0,0,1,176.49,149c4-1.68,7.89-1.58,11.34,1.47.65,1.81-.13,1.68-1.49,1.24-7.16-2.29-11.69-.89-16.25,4.92-3.89,5-4.17,8.85-.85,14.37C170.77,173.53,171.64,175.78,167.93,177.15Z"/><path class="cls-3" d="M284,195.42c-1.49-.54-1.55-2-2-3.19-2.22-6.16-3.8-12.54-6.4-18.57-1.84-4.29-4-8.39-7.51-11.75-12.1,19.14-31.55,26.68-51.67,32.8-11.84,3.6-23.86,6.8-36.32,7.69a24.29,24.29,0,0,1-7.85-.22c-2.46-.65-2.86.59-3,2.5-.29,4.8,1.44,9.14,3.09,13.49,1.1,2.89,2.29,5.75,3.43,8.63.36.9.85,1.88-.8,2a109.27,109.27,0,0,1-6.79-16.08c-1.63-5,.05-9.89.32-14.81a2.39,2.39,0,0,1,3.28-1.95c11.33,3.8,22.49,1.49,33.56-1,16.74-3.79,32.77-9.42,46.8-19.7a56.07,56.07,0,0,0,13.68-14.06c1-1.51,1.18-2.36,3.32-.34,9.39,8.93,12.1,20.84,15.59,32.47A1.66,1.66,0,0,1,284,195.42Z"/><path class="cls-8" d="M181.45,238.56a3.84,3.84,0,0,1,2.42-.05c15.15,4.72,30.17,3.2,45.08-1.14,16.62-4.83,31.83-12.2,43.52-25.47,2-2.32,3.73-4.94,5.6-7.42.65-.86,1.07-2.51,2.58-.86-4.21,10.4-11.79,17.93-21,23.78-19.08,12.09-39.92,18.53-62.61,18.54a64.69,64.69,0,0,1-13.51-1.6C179.72,243.53,179.21,241.94,181.45,238.56Z"/><path class="cls-9" d="M200.08,138.41c-.1-1.59,1.33-1.29,2.14-1.63,3.45-1.43,7.12-1.43,10.78-1.53a22.19,22.19,0,0,1,10.68,3.5c.7.46,2.12.8,1.3,2-.65,1-1.5-.06-2.18-.38-6.38-3-13-4.53-20-2.82C201.88,137.78,201,138.12,200.08,138.41Z"/><path class="cls-10" d="M27.14,114.91c.71-18.68,3.44-38.42,13.58-56.41a33.81,33.81,0,0,1,8-10c6.44-5.21,12.91-5.18,19.05.4C73.57,54.15,77.07,61,79.71,68.21c4,11,6.42,22.24,3.72,34-.48,2.13.27,3.92,2.35,4.64,1.59.54,1.89,1.29,1.67,2.83-.26,1.89-.1,3.82-.28,5.72-.2,2.13,0,4.29-2.72,5.48-2,.89-1.67,3.29-1.36,5.18,2.14,12.79-.32,25-5.13,36.74-2.82,6.92-6.64,13.26-12.95,17.67-6.51,4.56-12.26,4.07-18.18-1.21-10-8.9-14.14-20.74-16.74-33.3C28.07,136.25,27.3,126.37,27.14,114.91Z"/><path class="cls-6" d="M56.51,40.68c.86.08,1.6.92.52,1.06-14,1.79-18.46,13.16-23,23.63-8.74,20.22-11.11,41.6-9.34,63.51,1.11,13.68,3.42,27,9.85,39.32,2.72,5.22,6,10.06,10.62,13.83a19.18,19.18,0,0,0,10,4.56c-14.83,7.87-30.71-5.9-36.71-21.37-7.91-20-9.23-41.08-7.92-62.11A88.12,88.12,0,0,1,31.32,51.3,30.78,30.78,0,0,1,48,40.76C50.92,40.06,53.7,41.16,56.51,40.68Z"/><path class="cls-11" d="M56.51,40.68c-.62,1-1.68.79-2.57.75C45,41.07,37.88,45,32.4,51.65,18.51,68.46,11.59,88,11.27,109.71c-.27,18.23,1.4,36.26,7.08,53.73a8,8,0,0,1,.16,1.78c-4.64-8.72-7.12-18.16-8.93-27.77C5.16,113.94,6.35,90.84,15.7,68.56c3.84-9.14,9.34-17.22,17.35-23.3C40.09,39.91,47.76,37.45,56.51,40.68Z"/><path class="cls-12" d="M200.06,50.78c-1.32,1-2.09-.33-3-.77C167.5,35.73,130.19,41.4,107.5,63.64c4.91-7.18,11.86-12,19.38-15.85C151.79,34.92,176.2,36.78,200.06,50.78Z"/><path class="cls-3" d="M247.45,211.89c-4.23-.25-7.71-.64-10.93-1.93-2.18-.87-2.86-.14-3.46,1.82-1,3.42-2.39,6.74-3.46,10.16-.82,2.61-1.93,2.79-4,1.14-5.17-4.06-8.21-9.5-10.7-15.41-.84-2,.26-2.24,1.73-2.44,4.53-.61,9.08-1,13.36,1,1.92.93,2.5,0,3.12-1.46A32.13,32.13,0,0,1,241,193.42c2.05-1.89,3.37-1.83,4.36,1a131,131,0,0,1,4.4,14C250.49,211.68,250.21,212,247.45,211.89Z"/><path class="cls-13" d="M247.05,209.36c-3.57-.7-7-1.43-10.5-2-1.44-.26-1.36-.89-.84-1.95a34.87,34.87,0,0,1,6.94-9.84A39.27,39.27,0,0,1,247.05,209.36Z"/><path class="cls-14" d="M227.16,221.12c-4.81-3.57-7.37-8.32-10-13.61A26.36,26.36,0,0,1,229,211.16c1.05.57,1.15,1.25.76,2.32C228.84,215.9,228.08,218.36,227.16,221.12Z"/></svg>