<svg id="图层_1" data-name="图层 1" xmlns="http://www.w3.org/2000/svg" viewBox="0 0 300 300"><defs><style>.cls-1{fill:#603427;}.cls-2{fill:#fff;}.cls-3{fill:#4473b9;}.cls-4{fill:#cecfcf;}.cls-5{fill:#436ba9;}.cls-6{fill:#fafcfc;}.cls-7{fill:#cacbcb;}.cls-8{fill:#c8c6c5;}.cls-9{fill:#fad1a9;}.cls-10{fill:#fad1a8;}.cls-11{fill:#e8423f;}</style></defs><path class="cls-1" d="M31,95.12c1.26-1.43,1-2.88,1.19-4.21.65-4.64.69-4.68,5-4.67,5.72,0,5.72,0,6.91-5.53a19.51,19.51,0,0,1,.46-2A2.37,2.37,0,0,1,47,76.76c1.38.08,2.76.25,4.14.34,2.64.17,2.84,0,3.27-2.31a5.46,5.46,0,0,0,.1-.69c.42-6.93,2.14-6,6.81-5.65a20.52,20.52,0,0,0,2.07.12,2.26,2.26,0,0,0,2.47-1.91c0-.23.1-.45.16-.68.61-2.19.11-4.92,1.91-6.51s4.43-.29,6.68-.21a2.23,2.23,0,0,0,2.59-1.68c.13-.44.14-.91.26-1.36.51-2,.16-4.46,1.85-5.82s4-.16,6,.05c1.73.19,2.46-.54,2.82-2.18.49-2.19-.2-5,1.93-6.4s4.51-.15,6.79-.23A14.68,14.68,0,0,0,99,41.19c.32-2.07.62-4.11.95-6.15a2.72,2.72,0,0,1,2.81-2.48c2.46-.21,5.47,1.55,7.24-.5,1.34-1.55,1.27-4.31,1.88-6.51s1.25-2.42,3.53-2.4c2,0,4.39,1.6,5.92-.16,1.08-1.25,1.07-3.45,1.54-5.22.06-.22.1-.45.16-.68.74-2.69,1.23-3,3.81-2.87,2,.09,4.3,1.71,5.87-.12,1.11-1.29,1.26-3.41,1.84-5.16.51-1.49.52-3.44,2.28-4,2.36-.77,3,1.6,4.23,2.82,2.58,2.59,3.81,7,7.39,7.92,3.16.86,6.84-.25,10.29-.33s6.93,0,10.39.09c4.45.1,7.75,2.09,10.58,5.62,10.7,13.35,21.74,26.43,32.42,39.8q27.51,34.41,54.7,69.06c4.16,5.27,7.95,10.82,12.16,16a24,24,0,0,1,5.23,14.73,78.31,78.31,0,0,1-1.81,20,7.6,7.6,0,0,0,1.9,7.57,40.44,40.44,0,0,1,3.75,5,2,2,0,0,1-1.33,3.18c-1.59.24-3.21.29-4.82.42-1.38.11-2.76.2-4.07.29a7.52,7.52,0,0,0-.68,1.31c-.71,2.37.67,5.47-1.67,7.15-1.91,1.36-4.51.36-6.79.42s-2.63.31-3,2.82c-.18,1.37-.24,2.76-.46,4.13a2.49,2.49,0,0,1-2.39,2.11c-.22,0-.46,0-.69,0-2.45.31-5.52-1.44-7.22.64-1.3,1.58-1.09,4.38-1.6,6.63a2.58,2.58,0,0,1-3,2.19c-2.07-.16-4.13-.35-6.13-.52-.19.34-.31.53-.4.73-1.15,2.48.25,5.92-2.24,7.72-2.16,1.57-4.95.08-7.45.23-1.38.08-1.92.81-2.32,2.06-.81,2.54.28,6.22-2.7,7.38-2.17.84-5,0-7.78,0-1.17,1.64-1.06,3.77-1.53,5.7-.88,3.56-1.25,3.92-4.62,3.49-1.6-.2-3.16-.65-5-1-.49,2.87-.82,5.14-1.29,7.39a2.71,2.71,0,0,1-3,2.33c-.92,0-1.84-.14-2.77-.2-4.43-.31-4.74-.35-5.07,4.19a21,21,0,0,1-.4,2.74,2.4,2.4,0,0,1-2.45,2c-1.39,0-2.77-.16-4.16-.2-1.13,0-2.26,0-3.61,0-.59,2.68-1.11,5.14-1.69,7.58a2.54,2.54,0,0,1-3.08,2.07l-6.09-.6c-1.41,2.43-1.37,5.07-2.08,7.49a2.75,2.75,0,0,1-3.12,2.12c-2-.11-4-1.09-6.48-.44-.83,2.68-1.63,5.54-2.61,8.34a2.19,2.19,0,0,1-3.88.67,63,63,0,0,1-4.81-5.91,6.61,6.61,0,0,0-7-3.19,79.05,79.05,0,0,1-15.23.12c-5.36-.38-9.69-2.3-13.11-6.66-5.42-6.92-11.24-13.51-16.76-20.34Q67.8,217.87,35.83,174.62c-6.89-9.27-13.55-18.71-19.7-28.52-2.66-4.25-3.56-8.46-2.08-13.16,1.11-3.52,2.23-7.06,3.63-10.47a4.34,4.34,0,0,0-.83-5Q13.3,113.2,10,108.74c-1.38-1.87-.57-3.63,1.7-4,.68-.11,1.38-.11,2.07-.18,2-.23,4.4.09,6-.85,1.94-1.12.88-3.81,1.29-5.78s1.07-2.69,3.27-2.76S28.92,95.13,31,95.12Z"/><path class="cls-2" d="M162.31,68.88l32.77,41.25C211.49,130.74,228,151.29,244.27,172a22.73,22.73,0,0,0,12.31,8.39c4.46,1.19,9,2.25,13.43,3.39.82.21,2,.05,2.11,1.29.11,1.07-.83,1.52-1.49,2.1-.86.76-1.79,1.46-2.69,2.18q-55.33,44-110.6,88.17c-4,3.22-8.1,5-13.19,5-4.85,0-9.7.23-14.53-.46a10.88,10.88,0,0,1-7.06-3.88Q106.93,260,92.4,241c-1.11-3,1-4.82,2.65-6.65,12.1-13.62,20.92-29.2,27.81-46,.85-2.09,1.42-4.47,4-5.34,3.53.93,3.19,4.2,3.84,6.7,5.29,20.38,10.3,40.82,15.81,61.14,1,3.64,1.11,10,6.85,8.47,6.11-1.62,3-7.21,2-11.2-7.55-30.3-15.41-60.52-23.11-90.78-1.09-4.25-2.15-8.55-1.71-13,1.42-3.59-1.1-8.78,4.32-10.77,2.42,1.46,2.9,4,3.74,6.42q16.86,47.75,34,95.39a33.06,33.06,0,0,0,1.84,4.49c1.18,2.22,2.81,3.87,5.53,2.81,2.55-1,3.16-3.18,2.79-5.71a25.3,25.3,0,0,0-1.37-4.65C169,197,155.84,161.91,143.79,126.45c-1.61-4.73-3.85-8.83-7.78-12-.28-9.86,4.25-18.08,9.11-26.13,1.22-2,3.24-3.3,5.9-2.21,6.41,6.69,11.45,14.47,16.7,22,13.08,18.77,26.37,37.39,39.59,56,5.61,7.92,10.51,16.36,17.11,23.55,1.76,1.91,3.52,5.24,6.74,3,3.53-2.47,1-5.36-.52-7.84-8.26-13.11-17.76-25.36-26.56-38.09-12-17.3-24.49-34.19-36.27-51.6-3.7-5.48-6.76-12-15.3-10.62-3.26-2.17-.95-4.51.3-6.14C155.28,73.19,157.11,68.81,162.31,68.88Z"/><path class="cls-3" d="M149.4,85.86c-1.56.74-2.24,2.23-3,3.62a90.37,90.37,0,0,0-9.67,25c-3.35,4.27-5.26,8.73-2.41,14.13a3.37,3.37,0,0,1-.63,4.33l-1.89,11.74c-2.21.48-2.85-1.28-3.13-2.68-1-5.13-3.7-9.61-5.33-14.5,1.28-8.15,4.75-15.84,4.26-24.42-1-17.17-12.14-26.13-28.92-22.22-13,3-23.44,10.37-32.26,20.31C54.29,114.8,45.45,129.89,44,148.46c-1.64,21.15,12.71,32,32.85,25.16,13.84-4.73,24.3-13.85,33.21-25.09,1.83-2.32,3-5.25,6.12-6.39,1.84.37,2.66,1.78,3.14,3.35,3.42,11.27,6.15,22.72,8.7,34.21a3.38,3.38,0,0,1-.91,3.19,20.09,20.09,0,0,0-1.22,2.46c-6.6,19.41-17.37,36.35-30.62,51.84-1,1.21-1.92,2.55-2.87,3.82-9-10.85-18.05-21.64-25.9-33.38-2.18-3.26-4.75-6.26-7.16-9.37C53,190,46.28,182,40.34,173.5c-7-10-14.6-19.65-20.83-30.21-1.63-2.77-2.32-5.6-1.41-8.61,1.2-4,2.68-7.86,4.06-11.78a9.39,9.39,0,0,1,3.36-4.31c1.09-.86,2.17-1.74,3.25-2.6l107.58-85.4,5.15-4.09c1.83,1,1.28,2.25,1.2,3.31-.17,2.07-.55,4.13-.64,6.21A16.87,16.87,0,0,0,146,48.2c5.63,6.74,10.9,13.77,16.33,20.68-4.33,4-8.38,8.19-10.92,13.61a2.3,2.3,0,0,1-.46,2,4.59,4.59,0,0,1-.94,1Z"/><path class="cls-4" d="M214.46,98.32q-24.14-30.4-48.25-60.8c-3.83-4.82-3.88-5,.91-8.55,9.88-7.39,7.39-7.46,14.62,1.46,29.54,36.42,59,72.94,87.63,110,2.12,2.75,4.25,5.48,6.28,8.28,2.48,3.41,2.43,3.86-.42,7.09a28.33,28.33,0,0,1-2.47,2.43c-7,6.18-5.94,6-11.33-.8Q237.93,127.92,214.46,98.32Z"/><path class="cls-4" d="M211,100.85l46.55,58.63c1.15,1.45,2.33,2.87,3.42,4.36,1.53,2.11,1.35,2.92-.85,4.48l-.58.38c-7.76,5.13-8.17,5.17-13.88-2q-34.32-43.12-68.51-86.33Q165,65.15,153,49.93c-1.14-1.45-2.27-2.92-3.33-4.43A1.85,1.85,0,0,1,150,43a24,24,0,0,1,2-1.88c7.88-6.43,6.29-6.56,12.38,1.09Q187.72,71.5,211,100.85Z"/><path class="cls-5" d="M16.54,109.78c1.71-1.56,3.44-1.06,5-1.3a3.72,3.72,0,0,0,3.52-3.6c.06-.46.09-.93.18-1.38.82-3.83.85-3.85,5.05-4,.92,0,1.85.1,2.77,0A3.08,3.08,0,0,0,35.9,97c.52-2,.08-4.19,1.3-6,2-.72,4.11,0,6.17-.09,2.28-.11,3.26-.92,3.78-3.22a15.73,15.73,0,0,0,.3-2.06c.4-3.84.7-4.84,5.24-4.09a12.77,12.77,0,0,0,2.76.18,2.41,2.41,0,0,0,2.45-2c.26-1.13.35-2.29.55-3.43.64-3.66.69-3.95,4.41-3.43,5.86.81,6.78-.89,7.3-5.51a29.7,29.7,0,0,1,.71-3.17c2.3-1,4.35,0,6.4-.09a3.32,3.32,0,0,0,3.51-2.7c.58-2.21,1.2-4.4,1.73-6.35,2.31-.84,4,.47,5.84.39a3.22,3.22,0,0,0,3.16-2.21c.89-2.33-.34-5.73,2.1-7,1.81-.92,4.5,0,6.79-.1a3,3,0,0,0,2.89-2.55c.51-2,.15-4.18,1.27-6.07,2-.87,4.09,0,6.13-.11,2.31-.1,3.21-.81,3.84-3.15.06-.22.08-.46.12-.68.36-1.8.22-3.87,1.69-5.16s3.52-.14,5.3,0c2.38.14,3.24-.39,4-2.84.6-2,1-4,1.51-5.86,1.44-1.09,2.82-.42,4.14-.34,4.51.26,4.51.28,6.14-4.48.15-.43.28-.87.47-1.29.09-.18.31-.31.76-.73,1.75.49,2.55,2.21,3.57,3.57,1.5,2,1.32,2.9-.7,4.68-1.21,1.07-2.51,2-3.77,3.05L28.05,111.16l-.54.43C21.9,115.91,21.57,117.86,16.54,109.78Z"/><path class="cls-6" d="M281.17,191.67c-2.82,1.56-6.16-.16-7.61,2.06-1.13,1.75-.83,4.43-1.18,6.7a5.83,5.83,0,0,1-.47,1l-8,.19a1.92,1.92,0,0,0-1.94,1.64c-.41,2.24-.68,4.51-1,6.64a8,8,0,0,1-1.5.57c-2.69.37-5.88-1.35-8,.68s-1.08,5.32-2.3,8.23c-2,.88-4.27-.11-6.48-.16s-2.77.42-3.17,2.71c-.36,2-.64,4.08-.93,6-3.31,1.4-7.29-1.48-9.48,1.14-1.73,2.08-1.77,5.57-2.54,8.36-3,1-6.41-1.67-8.79.51-2,1.86-1.2,5.29-2.27,7.86-.07.18-.29.3-.45.45a4.23,4.23,0,0,1-1.33.23c-7.75-1.28-7.12-1.58-8.52,6.44a20.86,20.86,0,0,1-.6,2c-.69.14-1.35.31-2,.38-2.46.26-5.3-1.47-7.33.46-1.7,1.62-1,4.4-1.45,6.63-.3,1.38-1.18,1.7-2.51,1.73-2.45.05-5.46-1.63-7.21.61-1.29,1.66-1.32,4.34-1.8,6.58a2.13,2.13,0,0,1-2.29,2c-2.41.1-5.3-2.12-7.11.4-1.25,1.74-1.26,4.37-1.84,6.6a12.15,12.15,0,0,1-.47,1.27,3.56,3.56,0,0,1-1.21.56c-2.29.16-4.65-1.45-6.79-.36s-1.68,4.11-2.86,6c-.22.35-.67.55-1.29,1.05-.68-.85-1.4-1.68-2-2.57a1.75,1.75,0,0,1,.21-2.47c1.18-1.09,2.42-2.13,3.69-3.14l112.36-89.35c.54-.43,1.08-.87,1.63-1.29C278,187.22,278,187.22,281.17,191.67Z"/><path class="cls-7" d="M256.68,175.68c8.66-5.56,15.69-10.61,21.55-16.67a2.41,2.41,0,0,1,1.65,2.57c.33,5.54-.55,11-1.29,16.45a2,2,0,0,1-2.28,2A72.33,72.33,0,0,1,256.68,175.68Z"/><path class="cls-8" d="M159,30.06c-3.44,2.73-6.87,5.47-10.33,8.17a1.68,1.68,0,0,1-1.2.36c-.83-.13-1-.89-1-1.58a56,56,0,0,1,2.64-15,2.24,2.24,0,0,1,2-1.68,71.75,71.75,0,0,1,17.26-.57,1.54,1.54,0,0,1,1.06.72c.37.72-.09,1.29-.64,1.73L159,30Z"/><path class="cls-9" d="M154.06,102.7c2.22,2.31,3.21,5.74,4.74,8.79,8.61,17.29,16.9,34.73,25.34,52.1q12.35,25.44,24.74,50.85a14,14,0,0,1,1.2,3.21,5.73,5.73,0,0,1-4.34,6.83c-4.57,1.28-6.78.25-8.85-4q-15.57-32.31-31.16-64.61-11.1-23-22.28-45.91c-.2-.42-.5-.79-.68-1.21-1.59-3.71-.9-6.45,2.11-8.42S151.2,99,154.06,102.7Z"/><path class="cls-10" d="M127.11,182.89q-4.68-18.39-9.37-36.78a18.58,18.58,0,0,0-1.42-3.08,11.25,11.25,0,0,1-2.85-10.24c1-5.25,5-7.1,10.85-5.22,2.83,2.54,4,5.87,4.88,9.48.6,2.6.65,5.44,2.56,7.62a67,67,0,0,0,2.39,12.9q8,31.19,16.11,62.34,4.06,15.75,8,31.54a23.9,23.9,0,0,1,.79,4.08,5.66,5.66,0,0,1-4.26,6.3c-4.21,1.33-7.16-.13-8.59-4.5-1-3.07-1.78-6.21-2.57-9.34Q135.35,215.44,127.11,182.89Z"/><path class="cls-10" d="M133.65,132.94c-.81-2.63-1.59-5.27-2.41-7.9-1.68-5.34-1.26-6.52,3.6-9.63a20,20,0,0,1,1.85-.93c3.7.19,5.58,2.13,6.82,5.69C151,141.5,158.67,162.73,166.26,184q8.94,25.08,17.8,50.19c.31.87.63,1.73.95,2.6,1.78,4.93-1.41,7.39-5.29,8.84a5.32,5.32,0,0,1-6.43-2.78,52.76,52.76,0,0,1-2-5.16q-16.44-45.91-32.88-91.82C136.88,141.55,136.16,136.91,133.65,132.94Z"/><path class="cls-10" d="M150.1,84l1.29-1.51a25,25,0,0,1,2.8-2c3.16-1.73,5.7-1.43,7.94,1.4,3.27,4.15,7.07,7.94,9.15,13a8.61,8.61,0,0,0,1.48,2.33c8.49,9.77,14.48,21.37,22.77,31.29a23.87,23.87,0,0,1,4.51,6.93,7.72,7.72,0,0,0,1.41,2.37c8,9.25,13.7,20.23,21.54,29.61,4.6,5.51,7.43,12.18,12.07,17.68,2,2.34,1.33,5.34-.91,7.45a14.57,14.57,0,0,1-2.78,2,4,4,0,0,1-5.07-.68,31.27,31.27,0,0,1-2.68-3.16c-3.27-4.19-7-8.11-9.65-12.65-5.49-9.37-13.09-17.23-18.37-26.73-2-3.59-4.94-6.66-7.45-10s-5.32-6.4-6.83-10.36a4,4,0,0,0-.76-1.15c-7.44-8.55-12.71-18.67-19.87-27.4-4.27-5.2-7.33-11.16-11.29-16.53l0,.09A4.74,4.74,0,0,1,150.1,84Z"/><path class="cls-11" d="M124.32,127.57c-.9.07-1.8.09-2.69.2-5.58.75-7.5,3.34-6.5,8.67.42,2.19,1.57,4.25,1.19,6.59a92.76,92.76,0,0,1-21.53,23.22,63.51,63.51,0,0,1-18.28,9.62,32.83,32.83,0,0,1-15,1.58C53,176.21,47.19,171.59,44,163.61A34.79,34.79,0,0,1,42,148c1-13.53,6.45-25.38,13.73-36.52A89.79,89.79,0,0,1,71.1,93.73c8.9-8,19-13.9,31.07-15.64,7.74-1.11,14.73.62,20.36,6.28,4.07,4.09,5.88,9.32,6.64,14.9a42.84,42.84,0,0,1-.43,13.79A54.62,54.62,0,0,1,124.32,127.57Z"/><path class="cls-2" d="M150.1,84l-.68,2C148.88,85,149.46,84.51,150.1,84Z"/></svg>